<?xml version="1.0" encoding="utf-8"?>
<svg version="1.2" xmlns="http://www.w3.org/2000/svg" viewBox="0 0 30 30" xmlns:bx="https://boxy-svg.com" ><defs><linearGradient id="P" gradientUnits="userSpaceOnUse"/><linearGradient id="g1" x2="1" href="#P" gradientTransform="matrix(0,-21.144,27.766,0,1.117,23.792)"><stop stop-color="#aa1c00"/><stop offset="1" stop-color="#2a0700"/></linearGradient><linearGradient id="g2" x2="1" href="#P" gradientTransform="matrix(0,-0.911,.527,0,9.693,20.111)"><stop stop-color="#aa1c00"/><stop offset="1" stop-color="#2a0700"/></linearGradient><linearGradient id="g3" x2="1" href="#P" gradientTransform="matrix(0,-0.372,.061,0,11.131,19.877)"><stop stop-color="#aa1c00"/><stop offset="1" stop-color="#2a0700"/></linearGradient><linearGradient id="g4" x2="1" href="#P" gradientTransform="matrix(0,-0.605,.596,0,13.948,21.35)"><stop stop-color="#aa1c00"/><stop offset="1" stop-color="#2a0700"/></linearGradient><linearGradient id="g5" x2="1" href="#P" gradientTransform="matrix(0,-0.228,.054,0,11.851,19.952)"><stop stop-color="#aa1c00"/><stop offset="1" stop-color="#2a0700"/></linearGradient><linearGradient id="g6" x2="1" href="#P" gradientTransform="matrix(0,-0.279,.117,0,13.895,20.886)"><stop stop-color="#aa1c00"/><stop offset="1" stop-color="#2a0700"/></linearGradient><linearGradient id="g7" x2="1" href="#P" gradientTransform="matrix(0,-1.251,1.576,0,14.261,10.158)"><stop stop-color="#aa1c00"/><stop offset="1" stop-color="#2a0700"/></linearGradient><linearGradient id="g8" x2="1" href="#P" gradientTransform="matrix(0,-0.647,.591,0,14.749,9.822)"><stop stop-color="#aa1c00"/><stop offset="1" stop-color="#2a0700"/></linearGradient><linearGradient id="g9" x2="1" href="#P" gradientTransform="matrix(0,-0.797,1.414,0,14.264,13.157)"><stop stop-color="#aa1c00"/><stop offset="1" stop-color="#2a0700"/></linearGradient><linearGradient id="g10" x2="1" href="#P" gradientTransform="matrix(0,-1.012,2.87,0,13.284,9.928)"><stop stop-color="#aa1c00"/><stop offset="1" stop-color="#2a0700"/></linearGradient><linearGradient id="g11" x2="1" href="#P" gradientTransform="matrix(0,-0.207,.07,0,13.689,9.945)"><stop stop-color="#aa1c00"/><stop offset="1" stop-color="#2a0700"/></linearGradient><linearGradient id="g12" x2="1" href="#P" gradientTransform="matrix(0,-0.204,.069,0,16.316,9.921)"><stop stop-color="#aa1c00"/><stop offset="1" stop-color="#2a0700"/></linearGradient><linearGradient id="g13" x2="1" href="#P" gradientTransform="matrix(0,-0.203,.196,0,14.962,10.389)"><stop stop-color="#aa1c00"/><stop offset="1" stop-color="#2a0700"/></linearGradient><linearGradient id="g14" x2="1" href="#P" gradientTransform="matrix(0,-0.395,1.647,0,14.217,12.301)"><stop stop-color="#aa1c00"/><stop offset="1" stop-color="#2a0700"/></linearGradient><linearGradient id="g15" x2="1" href="#P" gradientTransform="matrix(0,-0.684,1.158,0,15.304,15.412)"><stop stop-color="#aa1c00"/><stop offset="1" stop-color="#2a0700"/></linearGradient><linearGradient id="g16" x2="1" href="#P" gradientTransform="matrix(0,-0.297,.48,0,14.875,12.608)"><stop stop-color="#aa1c00"/><stop offset="1" stop-color="#2a0700"/></linearGradient><linearGradient id="g17" x2="1" href="#P" gradientTransform="matrix(0,-0.537,6.112,0,11.994,11.752)"><stop stop-color="#aa1c00"/><stop offset="1" stop-color="#2a0700"/></linearGradient><linearGradient id="g18" x2="1" href="#P" gradientTransform="matrix(0,-0.265,.376,0,14.914,12.868)"><stop stop-color="#aa1c00"/><stop offset="1" stop-color="#2a0700"/></linearGradient><linearGradient id="g19" x2="1" href="#P" gradientTransform="matrix(0,-0.311,.619,0,14.517,12.556)"><stop stop-color="#aa1c00"/><stop offset="1" stop-color="#2a0700"/></linearGradient><linearGradient id="g20" x2="1" href="#P" gradientTransform="matrix(0,-0.206,.266,0,14.847,13.459)"><stop stop-color="#aa1c00"/><stop offset="1" stop-color="#2a0700"/></linearGradient><linearGradient id="g21" x2="1" href="#P" gradientTransform="matrix(0,-0.255,.987,0,14.841,13.955)"><stop stop-color="#aa1c00"/><stop offset="1" stop-color="#2a0700"/></linearGradient><linearGradient id="g22" x2="1" href="#P" gradientTransform="matrix(0,-0.178,.179,0,15.097,14)"><stop stop-color="#aa1c00"/><stop offset="1" stop-color="#2a0700"/></linearGradient><linearGradient id="g23" x2="1" href="#P" gradientTransform="matrix(0,-0.192,.241,0,14.96,13.726)"><stop stop-color="#aa1c00"/><stop offset="1" stop-color="#2a0700"/></linearGradient><linearGradient id="g24" x2="1" href="#P" gradientTransform="matrix(0,-0.205,.458,0,14.939,13.437)"><stop stop-color="#aa1c00"/><stop offset="1" stop-color="#2a0700"/></linearGradient><linearGradient id="g25" x2="1" href="#P" gradientTransform="matrix(0,-0.117,.087,0,15.251,14.211)"><stop stop-color="#aa1c00"/><stop offset="1" stop-color="#2a0700"/></linearGradient><linearGradient id="g26" x2="1" href="#P" gradientTransform="matrix(0,-0.179,.424,0,15.035,13.713)"><stop stop-color="#aa1c00"/><stop offset="1" stop-color="#2a0700"/></linearGradient><linearGradient id="g27" x2="1" href="#P" gradientTransform="matrix(0,-0.176,.358,0,15.288,14.442)"><stop stop-color="#aa1c00"/><stop offset="1" stop-color="#2a0700"/></linearGradient><linearGradient id="g28" x2="1" href="#P" gradientTransform="matrix(0,-0.186,.327,0,15.415,14.648)"><stop stop-color="#aa1c00"/><stop offset="1" stop-color="#2a0700"/></linearGradient><linearGradient id="g29" x2="1" href="#P" gradientTransform="matrix(0,-0.163,.522,0,15.157,14.147)"><stop stop-color="#aa1c00"/><stop offset="1" stop-color="#2a0700"/></linearGradient><linearGradient id="g30" x2="1" href="#P" gradientTransform="matrix(0,-0.904,.524,0,19.813,19.962)"><stop stop-color="#aa1c00"/><stop offset="1" stop-color="#2a0700"/></linearGradient><linearGradient id="g31" x2="1" href="#P" gradientTransform="matrix(0,-0.361,.059,0,18.854,19.728)"><stop stop-color="#aa1c00"/><stop offset="1" stop-color="#2a0700"/></linearGradient><linearGradient id="g32" x2="1" href="#P" gradientTransform="matrix(0,-0.226,.054,0,18.158,19.8)"><stop stop-color="#aa1c00"/><stop offset="1" stop-color="#2a0700"/></linearGradient><linearGradient id="g33" x2="1" href="#P" gradientTransform="matrix(0,-0.269,.109,0,16.078,20.724)"><stop stop-color="#aa1c00"/><stop offset="1" stop-color="#2a0700"/></linearGradient><linearGradient id="g34" x2="1" href="#P" gradientTransform="matrix(0,-0.132,.355,0,17.552,15.182)"><stop stop-color="#aa1c00"/><stop offset="1" stop-color="#2a0700"/></linearGradient><linearGradient id="g35" x2="1" href="#P" gradientTransform="matrix(0,-0.686,.502,0,11.547,12.622)"><stop stop-color="#aa1c00"/><stop offset="1" stop-color="#2a0700"/></linearGradient><linearGradient id="g36" x2="1" href="#P" gradientTransform="matrix(0,-0.104,.127,0,12.708,14.592)"><stop stop-color="#aa1c00"/><stop offset="1" stop-color="#2a0700"/></linearGradient><linearGradient id="g37" x2="1" href="#P" gradientTransform="matrix(0,-0.144,.391,0,12.141,15.28)"><stop stop-color="#aa1c00"/><stop offset="1" stop-color="#2a0700"/></linearGradient><linearGradient id="g38" x2="1" href="#P" gradientTransform="matrix(0,-0.101,.122,0,17.234,14.51)"><stop stop-color="#aa1c00"/><stop offset="1" stop-color="#2a0700"/></linearGradient><linearGradient id="g39" x2="1" href="#P" gradientTransform="matrix(0,-0.123,.102,0,7.272,18.04)"><stop stop-color="#aa1c00"/><stop offset="1" stop-color="#2a0700"/></linearGradient><linearGradient id="g40" x2="1" href="#P" gradientTransform="matrix(0,-0.088,.071,0,7.488,17.803)"><stop stop-color="#aa1c00"/><stop offset="1" stop-color="#2a0700"/></linearGradient><linearGradient id="g41" x2="1" href="#P" gradientTransform="matrix(0,-0.084,.069,0,22.443,17.675)"><stop stop-color="#aa1c00"/><stop offset="1" stop-color="#2a0700"/></linearGradient><linearGradient id="g42" x2="1" href="#P" gradientTransform="matrix(0,-0.478,.247,0,12.427,9.238)"><stop stop-color="#aa1c00"/><stop offset="1" stop-color="#2a0700"/></linearGradient><linearGradient id="g43" x2="1" href="#P" gradientTransform="matrix(0,-0.473,.249,0,17.381,9.223)"><stop stop-color="#aa1c00"/><stop offset="1" stop-color="#2a0700"/></linearGradient><linearGradient id="g44" x2="1" href="#P" gradientTransform="matrix(0,-0.111,.119,0,14.16,6.775)"><stop stop-color="#aa1c00"/><stop offset="1" stop-color="#2a0700"/></linearGradient><linearGradient id="g45" x2="1" href="#P" gradientTransform="matrix(0,-0.11,.117,0,15.805,6.792)"><stop stop-color="#aa1c00"/><stop offset="1" stop-color="#2a0700"/></linearGradient><linearGradient id="g46" x2="1" href="#P" gradientTransform="matrix(0,-0.081,.083,0,14.606,6.724)"><stop stop-color="#aa1c00"/><stop offset="1" stop-color="#2a0700"/></linearGradient><linearGradient id="g47" x2="1" href="#P" gradientTransform="matrix(0,-0.077,.076,0,15.402,6.74)"><stop stop-color="#aa1c00"/><stop offset="1" stop-color="#2a0700"/></linearGradient><linearGradient id="g48" x2="1" href="#P" gradientTransform="matrix(0,-0.088,.044,0,11.762,16.874)"><stop stop-color="#aa1c00"/><stop offset="1" stop-color="#2a0700"/></linearGradient><linearGradient id="g49" x2="1" href="#P" gradientTransform="matrix(0,-0.076,.044,0,19.161,16.596)"><stop stop-color="#aa1c00"/><stop offset="1" stop-color="#2a0700"/></linearGradient><linearGradient id="g50" x2="1" href="#P" gradientTransform="matrix(0,-0.075,.028,0,18.67,16.585)"><stop stop-color="#aa1c00"/><stop offset="1" stop-color="#2a0700"/></linearGradient><linearGradient id="g51" x2="1" href="#P" gradientTransform="matrix(0,-0.113,.051,0,11.335,16.712)"><stop stop-color="#aa1c00"/><stop offset="1" stop-color="#2a0700"/></linearGradient><linearGradient id="g52" x2="1" href="#P" gradientTransform="matrix(0,-0.407,.954,0,14.523,18.094)"><stop stop-color="#aa1c00"/><stop offset="1" stop-color="#2a0700"/></linearGradient><linearGradient id="g53" x2="1" href="#P" gradientTransform="matrix(0,-0.08,.075,0,14.673,7.434)"><stop stop-color="#aa1c00"/><stop offset="1" stop-color="#2a0700"/></linearGradient><linearGradient id="g54" x2="1" href="#P" gradientTransform="matrix(0,-0.078,.072,0,15.342,7.443)"><stop stop-color="#aa1c00"/><stop offset="1" stop-color="#2a0700"/></linearGradient><linearGradient id="g55" x2="1" href="#P" gradientTransform="matrix(0,-0.072,.067,0,15.54,7.631)"><stop stop-color="#aa1c00"/><stop offset="1" stop-color="#2a0700"/></linearGradient><linearGradient id="g56" x2="1" href="#P" gradientTransform="matrix(0,-0.073,.067,0,14.477,7.626)"><stop stop-color="#aa1c00"/><stop offset="1" stop-color="#2a0700"/></linearGradient><linearGradient id="g57" x2="1" href="#P" gradientTransform="matrix(0,-0.074,.063,0,14.337,7.87)"><stop stop-color="#aa1c00"/><stop offset="1" stop-color="#2a0700"/></linearGradient><linearGradient id="g58" x2="1" href="#P" gradientTransform="matrix(0,-0.075,.06,0,15.682,7.873)"><stop stop-color="#aa1c00"/><stop offset="1" stop-color="#2a0700"/></linearGradient><bx:export><bx:file format="svg"/></bx:export></defs><style>.c{fill:url(#g1)}.d{fill:url(#g2)}.e{fill:url(#g3)}.f{fill:url(#g4)}.g{fill:url(#g5)}.h{fill:url(#g6)}.i{fill:url(#g7)}.j{fill:url(#g8)}.k{fill:url(#g9)}.l{fill:url(#g10)}.m{fill:url(#g11)}.n{fill:url(#g12)}.o{fill:url(#g13)}.p{fill:url(#g14)}.q{fill:url(#g15)}.r{fill:url(#g16)}.s{fill:url(#g17)}.t{fill:url(#g18)}.u{fill:url(#g19)}.v{fill:url(#g20)}.w{fill:url(#g21)}.x{fill:url(#g22)}.y{fill:url(#g23)}.z{fill:url(#g24)}.A{fill:url(#g25)}.B{fill:url(#g26)}.C{fill:url(#g27)}.D{fill:url(#g28)}.E{fill:url(#g29)}.F{fill:url(#g30)}.G{fill:url(#g31)}.H{fill:url(#g32)}.I{fill:url(#g33)}.J{fill:url(#g34)}.K{fill:url(#g35)}.L{fill:url(#g36)}.M{fill:url(#g37)}.N{fill:url(#g38)}.O{fill:url(#g39)}.P{fill:url(#g40)}.Q{fill:url(#g41)}.R{fill:url(#g42)}.S{fill:url(#g43)}.T{fill:url(#g44)}.U{fill:url(#g45)}.V{fill:url(#g46)}.W{fill:url(#g47)}.X{fill:url(#g48)}.Y{fill:url(#g49)}.Z{fill:url(#g50)}.a0{fill:url(#g51)}.a1{fill:url(#g52)}.a2{fill:url(#g53)}.a3{fill:url(#g54)}.a4{fill:url(#g55)}.a5{fill:url(#g56)}.a6{fill:url(#g57)}.a7{fill:url(#g58)}</style><path class="c" d="m12.6 8.5c-0.9-1.3-0.4-2.9 1-3.5q-0.1-0.1 0-0.2 0.1 0 0.1 0 0.1 0 0.1 0.1 0.1 0 0.2-0.1-0.1 0-0.2 0 0-0.1 0-0.1c0-0.1 0.1-0.2 0.2-0.2q0.1 0 0.1 0.2 0.1 0 0.1-0.1 0 0 0 0c0.1-0.1 0.1-0.1 0.1-0.2q0.1 0 0.1-0.1 0-0.1 0-0.1 0.1 0 0.1-0.1 0 0 0 0c0.1-0.1 0-0.3 0.2-0.4q0 0 0-0.1 0-0.1 0.1-0.2 0.1 0 0.1 0 0-0.2 0.2-0.2 0 0 0-0.1 0-0.1 0.1-0.2 0-0.1 0-0.1c-0.1-0.1-0.1-0.1 0-0.1q0.1-0.1 0.1 0 0.1 0.1 0 0.1 0 0.1 0 0.1 0 0.1 0 0.3c0.1-0.1 0.1 0 0.1 0q0 0.1 0.1 0.1c0 0.1 0 0.1 0 0.2 0.1 0 0.1 0.1 0.1 0.2q0 0.1 0.1 0.1 0.1 0.1 0 0.3 0 0 0.1 0.1 0 0 0 0c-0.1 0.1 0.1 0.2 0.1 0.3q0 0 0 0 0.1 0.1 0.1 0.1c0 0.1 0 0.2 0 0.2q0 0 0 0.1 0-0.1 0.1-0.2c0-0.1 0.1-0.2 0.2-0.1 0.1 0 0.1 0.1 0.1 0.2q0 0.1-0.2 0.1 0 0.1 0.2 0.1 0 0 0-0.1 0.1-0.1 0.1-0.1c0.1 0.1 0.1 0.2 0.1 0.2 0 0.1 0 0.1 0 0.1q0.1 0.1 0.3 0.2 0.9 0.6 1 1.6 0 0.8-0.4 1.5 0 0 0 0.1 0.1-0.1 0.2-0.1c0.2-0.2 0.6-0.2 0.9-0.1q0.3 0.1 0.5 0.3 0.1 0.2 0.3 0.3 0.1 0 0.1 0.1 0 0.1-0.1 0.1c-0.2-0.1-0.2 0-0.3 0.1q-0.3 0.2-0.5 0.6c-0.1 0.1-0.1 0.3-0.1 0.5q0 0.2 0 0.3-0.1 0.3-0.4 0.5 0 0.1 0 0.1 0.1 0.1 0.2 0.2c0.1 0.1 0.2 0.2 0.2 0.4q0.2 0 0.3-0.1c0.1 0 0.1 0 0.2 0.1q0.3 0.3 0.6 0.7 0.1 0.3 0.1 0.7 0 0 0 0.1c0.3-0.2 0.5-0.3 0.8-0.4-0.1 0.2 0 0.2 0.1 0.3q0.1 0.3 0.3 0.6 0.1 0.4 0 0.7 0 0.1 0 0.1 0 0 0 0c0.3 0 0.7 0 1-0.1q0.1-0.1 0.2-0.1 0-0.1 0 0c0 0.2 0.1 0.3 0.1 0.5 0.1 0.6 0 1.2-0.3 1.7q-0.1 0.3-0.2 0.5 0 0 0 0c0.3 0 0.5 0.1 0.6 0.2q0.3 0.2 0.5 0.4 0.1 0.1 0.2 0.1 0 0 0.1 0.1-0.1 0-0.1 0-0.1 0-0.2 0.1-0.2 0.3-0.4 0.7-0.3 0.5-0.8 0.7-0.2 0-0.4 0.1 0.1 0.1 0.3 0.2c0.1 0 0.2 0.2 0.3 0.3 0.2 0.3 0.3 0.6 0.4 1q0 0.3 0 0.7 0 0.1 0 0.2 0 0 0 0.1-0.1 0-0.1-0.1c-0.2-0.1-0.4-0.1-0.7-0.1-0.4 0-0.8 0.1-1.3 0.1-0.4 0-0.9-0.1-1.3-0.3q-0.2-0.2-0.5-0.4 0-0.1 0-0.1 0 0.1 0 0.3c-0.1 0.2-0.2 0.3-0.3 0.5-0.2 0.2-0.5 0.3-0.7 0.4-0.4 0.2-0.7 0.2-1.1 0.4q-0.2 0-0.3 0.1-0.2 0.1-0.3 0.2-0.3 0.4-0.6 0.8 0 0-0.1 0-0.3-0.7-1-0.9c-0.4-0.2-0.7-0.3-1.1-0.4-0.3-0.1-0.6-0.3-0.9-0.6q-0.2-0.3-0.1-0.6 0 0 0 0 0 0 0 0-0.2 0.1-0.4 0.3-0.5 0.3-1.1 0.4c-0.4 0.1-0.9 0-1.3 0-0.3 0-0.5-0.1-0.8 0q-0.2 0-0.3 0.1 0 0.1-0.1 0 0 0 0 0c0-0.2 0-0.3 0-0.4 0-0.4 0.1-0.8 0.2-1.1q0.1-0.4 0.4-0.7c0.1-0.1 0.3-0.2 0.4-0.3q-0.2 0-0.3-0.1-0.6-0.2-0.9-0.7-0.2-0.3-0.4-0.6-0.1-0.1-0.2-0.1 0 0 0-0.1-0.1 0 0 0c0.2-0.1 0.3-0.2 0.4-0.3q0.2-0.2 0.3-0.3 0.3-0.2 0.5-0.2 0.1 0 0.1 0 0-0.1-0.1-0.2-0.4-0.6-0.5-1.4 0-0.4 0.1-0.9 0.1-0.1 0.1-0.2 0-0.1 0 0c0.2 0.1 0.4 0.1 0.6 0.1q0.3 0.1 0.6 0.1 0.1 0 0 0 0-0.1 0-0.3-0.1-0.3 0.1-0.6 0.1-0.3 0.3-0.6c0 0 0.1-0.1 0-0.2 0.3 0.1 0.6 0.2 0.8 0.3q0-0.1 0-0.3c0.1-0.4 0.3-0.7 0.5-0.9q0.2-0.2 0.3-0.3 0.1-0.1 0.2 0 0.1 0 0.2 0.1c0-0.3 0.2-0.5 0.4-0.6q0.1-0.1 0-0.1-0.3-0.3-0.3-0.6 0-0.3-0.1-0.5c0-0.3-0.2-0.6-0.4-0.8q-0.1-0.1-0.3-0.2 0-0.1-0.1 0 0 0-0.1-0.1c-0.1 0-0.1-0.1 0-0.1 0.1-0.1 0.3-0.2 0.4-0.3q0.5-0.4 1.1-0.3c0.1 0 0.3 0.1 0.4 0.1q0 0 0.1 0.1zm2.9-2.9q-0.1 0-0.1 0-0.1 0-0.1 0c0.1 0.1 0.1 0.1 0.2 0.1q0 0 0.1 0c0.2 0 0.5 0.1 0.7 0.3 0.5 0.3 0.9 1.1 0.5 1.8q-0.1 0.1 0 0.2 0.1 0 0.1 0c0.6-1.1-0.2-2.4-1.4-2.4zm0.9 6.1q0.1 0 0.1 0 0.2-0.2 0.3-0.4 0.3-0.6 0.1-1.2 0-0.2-0.1-0.4c0-0.1 0-0.2 0-0.3 0.1 0 0 0 0 0q0-0.1-0.1-0.1-0.2 0-0.4-0.2-0.1-0.1-0.2-0.2-0.2-0.1-0.3-0.1c-0.2-0.1-0.3 0-0.5 0q0 0 0 0-0.2 0.1-0.5 0 0 0 0 0-0.4-0.1-0.8 0.1-0.1 0.1-0.1 0.1c-0.1 0.1-0.2 0.2-0.3 0.3q-0.1 0-0.3 0 0 0-0.1 0.1 0 0 0 0.1c0.1 0 0.1 0.1 0.1 0.2q-0.1 0.2-0.2 0.5-0.2 0.6 0.2 1.1 0 0.1 0.1 0 0 0 0.1 0c-0.1 0.1-0.1 0.1-0.2 0.2 0.1 0 0.2-0.1 0.3-0.1q-0.1 0-0.1 0.1c0 0-0.1 0-0.1 0 0.1 0.1 0.1 0 0.1 0q0.1 0 0.1 0 0-0.1 0.1-0.1-0.1 0.1-0.2 0.2 0 0 0 0 0 0 0 0 0.1 0 0.2-0.1 0.1 0 0.1 0 0 0.1-0.1 0.1 0 0.1-0.1 0.1 0.2 0 0.4-0.2-0.1 0.1-0.1 0.2-0.1 0-0.2 0.1c0.2 0 0.3-0.2 0.4-0.3q0.1-0.2 0.1-0.5 0 0.1 0 0.1 0 0 0 0.1 0 0 0 0 0.1-0.3-0.1-0.6-0.1-0.1-0.1 0c-0.1 0-0.3 0-0.4-0.1-0.1-0.1-0.2-0.2-0.3-0.3q0 0 0 0 0 0 0-0.1c0 0.1 0 0 0 0q0 0 0 0c0.1 0.1 0.1 0.1 0.2 0.1q0.1 0 0.2 0 0.3 0 0.4 0.2 0 0.1 0 0.1 0.2 0.3 0.2 0.6 0 0.2-0.2 0.4c0 0.2-0.2 0.3-0.2 0.5q0 0.2 0.2 0.3c0.1 0 0.1-0.1 0.1-0.2q0-0.1 0-0.3 0 0 0.1 0 0 0 0 0 0 0.2 0 0.3-0.1 0.3-0.1 0.7c0.1 0.5 0.1 0.9 0.3 1.4 0.1 0.4 0.3 0.6 0.7 0.9q0.2 0.1 0.4 0.2 0.2 0.2 0.3 0.4 0.2 0.2 0.2 0.5 0.1 0 0 0.1 0-0.1 0-0.1-0.1 0.1-0.1 0.1c0.1 0 0.1 0 0.1 0q0.1 0.1 0.2 0.2 0 0 0.1 0.1c0 0 0 0 0-0.1 0 0 0 0 0.1 0q0-0.1 0.1-0.2 0-0.2 0-0.4-0.1-0.3-0.2-0.6-0.1-0.2-0.2-0.4c-0.2-0.4-0.4-0.8-0.4-1.2 0-0.4 0.1-0.7 0.1-1 0-0.2 0.1-0.4-0.1-0.5-0.1-0.2-0.1-0.4-0.1-0.6q0 0 0 0 0 0 0 0.1c0.1 0.1 0.1 0.3 0.2 0.4 0 0.1 0.1 0.1 0.1 0.1q0.2 0 0.2-0.1 0-0.2-0.1-0.3-0.1-0.2-0.2-0.4-0.2-0.5 0.1-0.9 0 0 0-0.1 0.1-0.1 0.2-0.2 0.1-0.1 0.3-0.1c0.1 0.1 0.2 0.1 0.3-0.1 0 0.1 0 0.2-0.1 0.2q-0.1 0.1-0.2 0.2 0 0-0.1 0.1c-0.1 0-0.2 0.1-0.3 0q-0.1 0-0.1 0-0.1 0.2-0.1 0.3-0.1 0.2 0 0.4c0-0.2 0-0.2 0-0.2 0 0.1 0 0.2 0.1 0.3 0 0.1 0 0.1 0.1 0.1q0 0 0 0 0 0 0 0c0 0-0.1 0-0.1 0.1 0.1 0 0.1 0 0.1 0 0.1-0.1 0.1-0.1 0.2-0.1q-0.1 0.1-0.2 0.1 0 0 0 0.1 0 0 0 0 0.1 0 0.1-0.1 0.2-0.1 0.4-0.4 0 0 0.1 0c-0.1 0.2-0.3 0.4-0.5 0.6q0.2-0.2 0.4-0.3-0.1 0.1-0.2 0.2 0 0-0.1 0.1c0.1 0 0.1-0.1 0.2-0.1q0 0 0 0 0 0-0.1 0.1zm-3.9 5.4q0 0 0 0 0.3 0.3 0.8 0.4 0.4 0.1 0.8 0.2c0 0 0.1-0.1 0.1-0.1q0-0.1 0-0.2 0.1 0 0.1 0c0 0 0 0 0-0.1 0.1-0.1 0.2-0.1 0.3-0.2q0 0 0 0 0.1 0 0.1-0.1c0 0 0-0.1 0.1-0.1 0 0 0-0.1 0.1-0.1 0-0.1 0-0.2 0.1-0.2q0 0 0 0 0-0.1 0-0.1c0.1 0 0.1-0.1 0.1-0.1 0.1 0 0 0.1 0.1 0.1 0 0-0.1 0.1 0 0.1 0 0 0 0.1 0.1 0.1q0 0.1 0.1 0.2c0 0.1 0.1 0.1 0.2 0.1q0.1 0.1 0.1 0.2c0.1 0 0.1 0.1 0.1 0.1 0-0.1 0 0 0.1 0q0 0.1 0 0.1 0 0.1 0 0.1 0.1 0 0.2 0 0.8 0 1.5-0.6 0.1 0 0.2-0.1 0-0.2 0.1-0.3c0-0.4 0.1-0.8 0-1.2 0.1 0.2 0.1 0.4 0.1 0.5q0-0.1 0.2-0.3 0 0 0 0-0.1-0.2-0.2-0.4-0.2-0.2-0.4-0.3-0.1-0.1-0.1-0.2-0.1 0-0.1 0-0.1 0.1-0.2 0.1-0.3 0.1-0.6-0.1-0.2 0-0.4-0.1 0 0 0 0.1c0.1 0.2 0.2 0.4 0.3 0.7 0.1 0.3 0.2 0.6 0.2 0.9q-0.1 0.2-0.3 0.4-0.1 0.1-0.2 0-0.1 0-0.1-0.1-0.2-0.1-0.3-0.1c-0.2 0-0.4-0.1-0.5-0.3q0-0.1 0-0.1c-0.1 0-0.1 0.1-0.2 0.1q0 0 0 0c0.1 0.1 0 0.1 0 0.1q-0.1 0.1-0.1 0c-0.1 0-0.1-0.1 0-0.1q0 0 0 0 0 0 0 0 0 0 0 0.1 0 0 0 0 0 0 0 0c0.1 0 0.1-0.1 0.1-0.1q-0.1 0 0 0 0-0.1 0-0.1 0-0.1 0-0.2 0 0 0 0-0.2-0.1-0.2 0.1 0 0 0 0-0.1 0.1 0 0.2 0 0 0 0-0.3-0.1-0.5-0.5 0 0.1 0 0.1-0.2 0.3-0.4 0.5-0.4 0.3-0.9 0.6c-0.2 0.1-0.4 0.2-0.6 0.3zm2.9-13.6c0.1 0.1 0.1 0.2 0.2 0.3q0-0.1-0.1-0.2c0-0.1 0-0.1-0.1-0.1q0.1-0.1 0-0.2c0-0.1 0-0.1-0.1-0.1q0 0 0 0.1 0 0 0 0.1 0 0.1 0.1 0.1zm2.4 10.5c0-0.1 0-0.3 0.1-0.5q0 0.1 0 0.2 0 0.1 0 0.3 0 0.1 0 0.1 0 0.1 0.1 0.2c0-0.1-0.1-0.3-0.1-0.5q0.1 0 0.1 0 0 0.2 0 0.4 0 0.1 0.1 0.1 0.1-0.1 0.1-0.1 0.3-0.1 0.6-0.2 0.1 0 0-0.1-0.1 0 0-0.1 0-0.1 0-0.1c0-0.1 0-0.1 0-0.2q0.1 0 0.1-0.1 0-0.1 0.1 0c0.1 0 0.1 0 0.1-0.1q0-0.2-0.1-0.4-0.2-0.4-0.6-0.8-0.1-0.1-0.2-0.1-0.1-0.1-0.1 0 0 0 0 0 0.1 0 0.1 0 0.3 0.2 0.5 0.5 0 0 0 0.1 0 0 0 0 0-0.1 0-0.1-0.2-0.3-0.5-0.4c-0.1-0.1-0.1-0.1-0.1 0-0.2 0.3-0.5 0.6-0.7 0.8q-0.5 0.6-1.1 1.1-0.1 0.1 0 0.1 0 0-0.1 0.1c0 0 0-0.1-0.1-0.1 0.1 0.1 0.2 0.1 0.2 0.2-0.1 0-0.1-0.1-0.2-0.1 0.1 0.1 0.3 0.2 0.4 0.3-0.1 0-0.2-0.1-0.4-0.2q0 0.1 0.1 0.1 0.4 0.3 0.9 0.2 0.1 0 0.2-0.1 0.3-0.2 0.3-0.6-0.1-0.2-0.1-0.5-0.1-0.1 0-0.1c0.1 0.2 0.1 0.5 0.3 0.7zm-0.7-2.4c0.1 0.1 0.1 0.1 0.2 0.1q0 0 0 0 0 0 0 0c-0.1 0-0.1-0.1-0.2-0.1q0 0 0 0c-0.1 0-0.1 0-0.1 0.1q0 0 0 0c0 0.3-0.1 0.5-0.2 0.7-0.1 0 0 0.1 0 0.1q0 0 0 0 0.2-0.4 0.3-0.8c0 0 0-0.1 0-0.1zm-4.2 0.1q0.1 0 0.1 0 0 0.4 0.2 0.7 0.1 0.1 0.1 0.2 0.1-0.1 0-0.2-0.1-0.1-0.2-0.2-0.1-0.3-0.1-0.6c0 0.1 0 0-0.1 0.1 0 0-0.1 0-0.1 0q0 0 0 0 0 0.1 0 0.1c0-0.1 0.1-0.1 0.1-0.1zm1.2-6.9q0-0.1 0-0.2-0.1-0.1-0.1-0.1c-0.1 0-0.1 0.1-0.1 0.2q-0.1 0 0 0.1 0 0 0.1 0 0-0.1 0.1 0-0.1 0.1-0.2 0.1 0.1 0 0.2-0.1zm0.4 10.1c0 0 0 0 0 0q-0.1 0-0.1 0.1 0 0 0.1 0c0 0 0 0 0 0q0-0.1 0-0.1 0-0.1-0.1-0.1 0 0.1 0 0 0 0 0 0c0-0.1 0 0 0.1 0 0 0 0-0.1 0-0.1-0.1 0-0.1 0-0.1 0 0-0.1 0-0.1 0.1-0.1q-0.1 0-0.1-0.1 0 0 0.1 0 0 0 0 0c0 0-0.1 0.1 0 0q0 0 0 0 0-0.1-0.1-0.2 0 0.1 0.1 0.1 0 0 0 0.1c-0.1 0-0.1 0-0.2 0.1q0 0.2 0 0.5 0 0.1 0.1 0.3c0-0.1 0.1-0.1 0-0.2q0 0 0 0 0-0.1 0-0.1c-0.1 0 0-0.1-0.1-0.2 0 0 0.1 0 0.1 0 0 0 0.1 0 0.1 0zm-1.8 3.3q-0.1-0.2-0.3-0.2-0.6-0.2-1.1-0.2c-0.1 0-0.1 0-0.1 0q0 0 0.1 0 0 0 0 0 0.5 0 0.9 0.1 0 0 0.1 0-0.4-0.2-0.7-0.3c0.1 0 0.3 0.1 0.4 0.1q0.2 0.1 0.4 0.2c-0.1-0.2-0.2-0.4-0.3-0.5 0.1 0.1 0.2 0.2 0.3 0.4 0.1-0.2 0-0.4-0.2-0.5q0.3 0.1 0.3 0.4 0 0 0 0.1 0.3 0.2 0.7 0.4 0.2 0.1 0.5 0.2c-0.1 0-0.3-0.1-0.5-0.1q0.6 0.2 1.2 0.4c-0.4 0-0.7-0.2-1-0.2q0.4 0.1 0.8 0.2c-0.3 0-0.6-0.1-0.9-0.2 0.3 0.2 0.7 0.3 1 0.4 0.1 0 0 0 0-0.1q0.1 0.1 0.2 0.1 0 0 0 0-0.1-0.1-0.1-0.1c0 0 0.1 0 0.1 0 0-0.1-0.1-0.2-0.2-0.3q0-0.1 0-0.1c-0.1 0-0.1 0-0.1 0 0.1-0.1 0.1-0.1 0-0.1q-1-0.1-1.7-0.9-0.2-0.2-0.3-0.4 0 0-0.1 0.1c-0.1 0.1-0.2 0.3-0.3 0.3q-0.3 0-0.6 0 0 0 0 0c-0.1-0.1-0.2-0.1-0.4-0.1q-0.1-0.1-0.2-0.1-0.1 0-0.2 0c0 0 0.1 0 0.1 0q-0.1 0.1-0.3 0.1-0.1 0-0.2 0.1-0.1 0-0.2 0.1 0.1 0 0.3-0.1 0.1 0 0.3 0 0 0 0 0 0 0-0.1 0-0.6 0.2-1.1 0.7c-0.1 0.2-0.2 0.3-0.2 0.5q0.2-0.4 0.5-0.6-0.2 0.2-0.3 0.4c-0.1 0.2-0.2 0.3-0.2 0.5q0.2-0.6 0.8-0.9c-0.2 0.2-0.4 0.3-0.5 0.6 0.4-0.7 0.9-0.8 1.1-0.8q-0.7 0.2-1 0.8 0.1-0.1 0.3-0.3c0.3-0.2 0.7-0.3 1.1-0.4q0.2-0.1 0.4 0c0 0 0 0 0.1 0.1q-0.2-0.1-0.3-0.1-0.2 0-0.4 0.1-0.6 0.2-1 0.5-0.2 0.1-0.4 0.3-0.1 0.3-0.1 0.6 0 0.2 0.1 0.4 0.1 0.1 0.3 0.2c0.2 0.2 0.5 0.2 0.8 0.3 0.5 0.1 1 0.1 1.6 0.2q0.5 0 0.9 0.1 0.1 0 0.1 0.1c-0.9-0.2-1.8-0.2-2.8-0.3q0.1 0 0.1 0 0.2 0.2 0.4 0.2c0.3 0.1 0.5 0.1 0.8 0.1q1.1 0.1 2.2 0.4 0.1 0 0.1 0.1c-0.6-0.1-1.2-0.3-1.8-0.3 0.4 0.1 0.8 0.2 1.2 0.3-0.3 0-0.6-0.1-0.9-0.1q0.1 0 0.1 0 0.3 0.1 0.5 0.1 0.1 0 0.1 0.1c0 0-0.1 0-0.1 0 0.3 0.1 0.5 0.1 0.8 0.1-0.2 0.1-0.4 0-0.6 0q0.1 0.1 0.2 0.1 0.2 0 0.4 0 0.1 0 0.1 0.1 0 0 0 0 0.1 0 0.3 0 0.4 0 0.7-0.2c0.1 0 0.2-0.1 0.2-0.2q0.1-0.1 0.1-0.3c-0.1 0.1-0.2 0.3-0.3 0.4 0.1-0.2 0.2-0.3 0.2-0.5q0-0.2 0-0.4 0-0.1 0-0.2 0-0.1 0-0.2c-0.1 0.6-0.1 0.6-0.2 0.7 0.1-0.3 0.1-0.6 0-1 0 0.3 0 0.6-0.2 0.8q0.1-0.1 0.1-0.3 0 0-0.1-0.1c0 0 0 0 0-0.1-0.1-0.3-0.2-0.6-0.4-0.8q-0.1-0.1-0.2-0.1 0.2 0.2 0.3 0.5 0.1 0.3 0 0.6 0.1-0.3 0-0.5-0.1-0.3-0.3-0.5c-0.1-0.1-0.2-0.3-0.3-0.3 0.2 0.3 0.2 0.6 0.1 0.7q0.1-0.3-0.2-0.6c0.1 0.5-0.2 1-0.5 1.1q0 0 0 0 0 0 0 0c0.3-0.2 0.4-0.5 0.5-0.8q0-0.2-0.1-0.4c0-0.1 0-0.1 0-0.1 0 0.1 0 0 0 0q-0.1-0.1-0.2-0.2-0.7-0.4-1.5-0.4c-0.1 0-0.1 0-0.1 0.1q-0.1 0-0.1 0 0 0 0-0.1 0 0 0 0 0 0 0.1 0 0.3-0.1 0.6 0 0.3 0 0.5 0.1c-0.2-0.2-0.4-0.2-0.6-0.3 0.2 0 0.4 0 0.6 0.2zm1.1-4q0 0 0 0 0.1-0.1 0.2-0.1 0-0.1 0-0.1-0.1-0.1-0.1-0.2 0 0 0-0.1-0.2 0-0.2-0.1-0.1-0.1-0.1-0.2-0.7-0.6-0.9-1.5c0 0 0-0.1-0.1 0 0 0-0.1 0-0.2 0 0 0 0-0.1 0-0.1q0 0 0 0 0-0.1 0-0.1-0.3 0.1-0.5 0.2c0.1 0 0.2-0.1 0.4 0q-0.1 0-0.1 0-0.1 0-0.1 0-0.7 0.3-1 1-0.1 0.3-0.1 0.5c0.1 0 0.1 0 0.2 0.1q0 0.1 0 0.1 0.1 0 0.1 0.1-0.1 0.1 0 0.2 0 0.1-0.1 0.1 0 0.1 0.1 0.1 0.4 0.1 0.7 0.3 0.1-0.1 0.1-0.3 0-0.1 0-0.2c0 0.1 0 0.3 0 0.5q0.1-0.4 0.1-0.8c0.1 0.2 0 0.3 0 0.5 0.2-0.2 0.3-0.5 0.4-0.8q0 0.1 0 0.1 0 0.3-0.1 0.6 0 0.2 0.1 0.4 0.1 0.2 0.3 0.3c0.5 0.1 0.9-0.1 1.3-0.5 0-0.1 0-0.1-0.1-0.1q0 0 0 0c0 0.2-0.4 0.5-0.6 0.5q0.2-0.1 0.4-0.2c0.1-0.2 0.2-0.2 0.2-0.3-0.1 0.1-0.2 0.2-0.3 0.3q0.1-0.2 0.2-0.3c0 0 0.1 0 0.1-0.1-0.1 0-0.1 0.1-0.1 0.1q-0.1 0.1-0.2 0.1zm3.4 6.3q0 0 0.1 0 0.6-0.2 1.3-0.2c0.4-0.1 0.9-0.1 1.3-0.2 0.3-0.1 0.5-0.1 0.7-0.3q0.4-0.2 0.3-0.6c0-0.2 0-0.4-0.2-0.6q-0.1-0.1-0.2-0.2-0.5-0.4-1.1-0.5c-0.2-0.1-0.4-0.2-0.7-0.1 0.1 0 0.2-0.1 0.3-0.1q0.2 0 0.4 0.1c0.4 0.1 0.8 0.3 1.1 0.6q0.1 0 0.1 0.1-0.3-0.6-0.9-0.8c0.4 0.1 0.8 0.4 1.1 0.7-0.2-0.2-0.4-0.4-0.5-0.6q0.1 0.1 0.3 0.3 0.1 0.1 0.3 0.3 0.1 0.2 0.2 0.3c-0.1-0.3-0.3-0.6-0.6-0.8q0.4 0.2 0.6 0.5 0-0.1-0.1-0.2-0.5-0.7-1.3-0.9 0 0 0-0.1c0.2 0 0.4 0.1 0.5 0.2-0.2-0.1-0.4-0.3-0.6-0.3 0 0 0 0 0 0q-0.1-0.1-0.1 0-0.1 0-0.1 0-0.1 0-0.1 0-0.1 0.1-0.2 0.1-0.1 0-0.1 0c-0.1 0.1-0.3 0.1-0.4 0.1q-0.1 0-0.1 0-0.2 0-0.3-0.1-0.2-0.1-0.3-0.3-0.1 0.2-0.3 0.4c-0.2 0.2-0.4 0.4-0.6 0.6-0.1 0-0.2 0.1-0.3 0.1-0.1 0.1-0.2 0.1-0.3 0.1-0.1 0.1-0.1 0.2-0.2 0.2 0 0 0.1 0 0.1 0q-0.1 0.1-0.2 0.1 0.4-0.1 0.7-0.2c-0.1 0-0.3 0.1-0.4 0.1q0.2-0.1 0.4-0.2 0.4-0.1 0.7-0.4 0.1-0.1 0.1-0.2c0-0.1 0.1-0.3 0.2-0.3 0 0.1-0.1 0.1-0.1 0.2q-0.1 0.1-0.1 0.2c0.1-0.1 0.2-0.2 0.4-0.3-0.2 0.1-0.2 0.3-0.3 0.5q0.1-0.1 0.1-0.1 0.3-0.2 0.5-0.2c0.1 0 0.1 0 0.2 0q-0.4 0.1-0.7 0.3 0 0 0 0 0.4-0.1 0.7-0.1 0.2-0.1 0.3 0 0 0 0 0 0 0 0 0-0.1 0-0.3 0-0.4 0-0.8 0.1-0.2 0.1-0.3 0.2c0.2-0.1 0.4-0.1 0.6-0.1-0.2 0-0.4 0.1-0.6 0.2q0.2 0 0.4-0.1 0.3 0 0.7 0 0 0 0.1 0.1 0 0 0 0 0 0-0.1 0 0 0 0 0c0 0 0 0 0 0q-0.1 0-0.2 0-0.6 0-1.1 0.2-0.3 0.1-0.4 0.3c-0.1 0-0.1 0.1-0.1 0.1q-0.1 0-0.1 0 0 0.1 0 0.1 0 0.5 0.2 0.9 0.1 0.1 0.3 0.3-0.3-0.2-0.5-0.5-0.1-0.3-0.1-0.7-0.2 0.3-0.2 0.7 0-0.2 0-0.4 0.1-0.2 0.2-0.4c-0.2 0.2-0.4 0.4-0.5 0.6q-0.2 0.4-0.1 0.7c-0.2-0.4 0-0.7 0.3-1.1q-0.1 0.1-0.1 0.1-0.4 0.4-0.5 0.9 0 0 0 0c-0.1 0 0 0.1-0.1 0.1 0 0.1 0.1 0.2 0.1 0.3q-0.2-0.3-0.2-0.7-0.1 0.2-0.1 0.5 0 0.2 0.1 0.5-0.1-0.2-0.1-0.4-0.1-0.1-0.1-0.3 0 0.3 0 0.5c0 0.1 0 0.2 0 0.2q0.2 0 0.3 0.1 0-0.1 0.1-0.1c0 0 0 0.1 0 0.2q0.2 0 0.2 0.2c0.1 0.1 0.2 0.1 0.3 0.1 0 0 0 0 0 0q0 0.1 0 0.1-0.1 0-0.2 0c0 0 0-0.1 0 0q0 0.1-0.1 0.1 0 0.1 0.1 0.1c0.1 0 0.1 0 0.2 0 0.1 0 0.2 0 0.3 0 0.1-0.1 0.2-0.1 0.2-0.1q0.2 0 0.4 0c-0.1 0-0.3 0-0.5 0q0.4 0 0.7-0.2 0 0 0 0 0 0 0 0 0.1 0 0.1 0 0.2-0.1 0.4-0.2 0 0 0 0c-0.2 0.1-0.4 0.1-0.7 0.1 0.4-0.1 0.7-0.2 1.1-0.3-0.6 0.1-1.1 0.2-1.7 0.3q0 0 0 0 0.3-0.1 0.5-0.2c0.7-0.2 1.4-0.2 2.2-0.3 0.2 0 0.4 0 0.6-0.1q0.1-0.1 0.2-0.2c-0.9 0.1-1.8 0.1-2.7 0.3zm-5-5.1q-0.1 0.2-0.1 0.3 0 0.6 0.2 1.1 0 0.1 0.1 0.2 0 0 0 0 0.3 0 0.5-0.2 0.5-0.2 1-0.6 0.3-0.2 0.5-0.5c0 0 0-0.1 0-0.1 0 0 0-0.1-0.1-0.1q0 0-0.1-0.1 0-0.1-0.1-0.2 0 0 0 0 0-0.1 0-0.3c0 0 0-0.1 0-0.1 0-0.2 0.1-0.3 0.1-0.4 0.1 0 0.1-0.1 0-0.2q0 0 0 0 0 0 0 0.1-0.1 0.1-0.2 0.2-0.4 0.3-0.9 0.3c-0.2 0-0.3 0-0.4-0.1q-0.1 0-0.1 0-0.1 0.1-0.2 0.2-0.1 0.1-0.3 0.3-0.1 0.1-0.2 0.3 0 0.1 0 0.1 0.1 0.2 0.2 0.4c0-0.2 0-0.4 0.1-0.6zm1.4-2c0 0 0.1 0 0-0.1-0.1 0-0.1-0.1-0.2-0.1q-0.4-0.5-0.6-1.1 0-0.2-0.1-0.3c-0.1 0.2 0.5 1.2 0.9 1.6zm0.6 1.4q0.1-0.1 0.1-0.2 0 0 0 0-0.1 0-0.1 0-0.1 0.1 0 0.2 0 0 0 0 0 0 0 0-0.1 0.1 0 0.2 0 0 0 0 0 0 0 0c0-0.1 0-0.1 0-0.2zm3.6-2.9q0.1 0 0.2 0.1c0 0 0.1 0 0.1 0 0-0.1 0 0 0-0.1q-0.1 0-0.1 0c0.1 0 0 0 0 0q-0.1-0.1-0.2-0.1c0.1 0 0.2 0 0.2 0q-0.1-0.1-0.3-0.1 0 0 0 0.1 0 0 0 0c-0.1 0.1-0.2 0.1-0.2 0.1-0.1-0.1-0.1-0.1-0.1 0q-0.2 0.7-0.7 1.3c-0.1 0.1-0.3 0.2-0.3 0.4q-0.1 0-0.1 0c-0.2 0.1-0.1 0.2-0.2 0.3 0.1-0.1 0.1-0.2 0.3-0.2q0 0 0 0c-0.1 0.1-0.2 0.2-0.2 0.3q-0.1 0 0 0c0 0.1 0 0 0 0q0.2-0.1 0.4-0.3 0.5-0.5 1-1 0.2-0.3 0.4-0.6 0.1-0.1 0-0.1-0.1-0.1-0.2-0.1zm-8.4 3.2q0.2 0 0.3 0.1 0.2 0 0.4 0.2c0-0.1-0.1-0.1-0.1-0.2q0.1 0.1 0.2 0.1-0.1 0-0.1-0.1c-0.3-0.2-0.7-0.3-1.1-0.4-0.3 0-0.7-0.1-1-0.2q0 0 0 0c0.1 0.2 0.3 0.4 0.4 0.5q-0.3-0.1-0.5-0.4c-0.1 0.5-0.1 1.1 0.2 1.6q0.2 0.5 0.7 0.9-0.1-0.2-0.3-0.3-0.1-0.2-0.2-0.4 0 0.1 0.1 0.1 0.1 0.2 0.4 0.5 0 0 0 0 0.2 0 0.3 0.1 0 0 0.1 0c-0.2-0.1-0.2-0.1-0.2-0.2q0.1 0 0.2 0.1 0.1 0 0.2 0.1 0.1 0 0.2 0c-0.5-0.3-0.6-0.3-0.6-0.5q0.4 0.3 0.9 0.4c-0.4-0.2-0.8-0.5-1.1-0.8q0.2 0.1 0.3 0.2 0.4 0.3 0.8 0.5 0.1 0.1 0.2 0.1-0.2-0.1-0.3-0.2-0.2-0.1-0.4-0.2-0.1-0.2-0.3-0.3-0.1-0.1-0.3-0.3c0.5 0.4 0.9 0.8 1.5 1-0.7-0.4-1.2-0.9-1.7-1.5q0.1 0 0.1 0 0.2 0.2 0.3 0.4 0.4 0.4 0.8 0.7c0.1 0 0.1 0.1 0.1 0.1 0-0.1 0-0.1 0-0.1q0 0 0 0c-0.2-0.2-0.3-0.3-0.4-0.4q0-0.1 0-0.1c0.1 0.1 0.3 0.2 0.4 0.3q-0.1-0.1-0.2-0.3 0 0 0 0 0.2 0.2 0.4 0.4c0-0.1 0-0.1 0-0.1q-0.3-0.3-0.5-0.5 0 0 0-0.1 0 0 0 0 0 0.1 0 0.1c0.2 0.1 0.3 0.2 0.5 0.3 0 0 0 0.1 0 0.1 0-0.1 0-0.1 0-0.1-0.2-0.2-0.4-0.4-0.5-0.6q-0.1 0-0.1 0c0.1-0.1 0.1 0 0.1 0 0.2 0.1 0.4 0.2 0.5 0.4q0.1 0 0.1 0.1c-0.2-0.3-0.3-0.5-0.5-0.7 0.2 0.1 0.3 0.3 0.5 0.4q0 0 0 0-0.1-0.1-0.1-0.2c0 0 0-0.1 0-0.1q-0.2-0.1-0.3-0.3-0.2-0.1-0.4-0.2zm11.8 2c0.2-0.2 0.7-0.6 0.8-1.1q0.3-0.7 0.1-1.4-0.2 0.3-0.5 0.4c0.1-0.1 0.3-0.3 0.4-0.5q0 0 0 0c-0.3 0.2-0.6 0.2-1 0.2-0.3 0.1-0.7 0.2-1 0.4q-0.1 0-0.1 0.1 0.1 0 0.2-0.1c-0.1 0.1-0.1 0.1-0.1 0.2q0.1-0.1 0.3-0.2 0.2-0.1 0.4-0.1-0.1 0-0.2 0.1-0.2 0-0.3 0.2c-0.1 0.1-0.2 0.2-0.3 0.3 0 0.1 0 0.2-0.1 0.2 0.2-0.1 0.3-0.3 0.5-0.4-0.1 0.2-0.3 0.4-0.4 0.6q0.1-0.1 0.1-0.1 0.2-0.2 0.4-0.3 0.1 0 0.1 0 0 0 0 0 0 0-0.1 0c-0.1 0.2-0.3 0.4-0.5 0.6 0 0 0 0 0 0.1 0 0 0.1-0.1 0.1-0.1 0.1-0.1 0.2-0.2 0.4-0.3q0-0.1 0.1-0.1 0 0.1-0.1 0.1-0.1 0.1-0.3 0.3 0 0.1-0.1 0.2c0 0-0.1 0 0 0 0 0.1 0 0 0 0q0.1-0.1 0.2-0.2 0.1-0.1 0.2-0.1-0.1 0.2-0.2 0.3 0.2-0.1 0.3-0.3 0 0 0 0.1-0.1 0.1-0.2 0.2-0.1 0.1-0.1 0.2c-0.1 0-0.1 0-0.1 0 0.1 0.1 0.1 0 0.1 0q0 0 0 0c0.4-0.3 0.7-0.6 1-1q0.1 0 0.2-0.1-0.2 0.2-0.3 0.4-0.5 0.6-1.1 1 0 0 0.1-0.1 0.1-0.1 0.3-0.2c0.3-0.2 0.5-0.4 0.7-0.6q0 0 0.1 0c-0.4 0.4-0.8 0.8-1.3 1q0.1 0 0.1 0 0.5-0.2 0.9-0.6 0.1-0.1 0.2-0.2 0.1 0 0.1 0c-0.3 0.3-0.6 0.6-1 0.8q0.4-0.1 0.8-0.4c-0.1 0.3-0.4 0.4-0.6 0.5q0.2 0 0.3-0.1 0.2 0 0.3-0.1c0 0.1-0.1 0.1-0.1 0.2 0.1-0.1 0.2-0.1 0.3-0.1q0 0 0-0.1 0.2-0.1 0.3-0.3 0.1-0.1 0.2-0.2c-0.1 0.3-0.3 0.5-0.5 0.7zm-12.8 3.5q0-0.1 0-0.1 0.1-0.2 0.2-0.3 0.1 0 0.1-0.1-0.1 0-0.1 0c-0.1 0.2-0.3 0.3-0.3 0.5-0.1 0.2-0.2 0.4-0.3 0.6q0 0.1 0 0.2 0 0 0 0 0 0 0-0.1c-0.1 0.2-0.1 0.4-0.1 0.5q0.2-0.1 0.3-0.2 0.3-0.2 0.4-0.2-0.2 0.1-0.3 0.2-0.1 0.2-0.3 0.3 0.3-0.1 0.6-0.1 0.3 0.1 0.6 0.1 0.3 0 0.7 0-0.1 0-0.1 0c0.6-0.1 0.8-0.2 1-0.3q-0.2 0.1-0.4 0.1 0 0 0 0 0.4-0.2 0.7-0.4 0.3-0.1 0.5-0.3 0 0 0 0 0 0 0 0 0 0-0.1 0.1c-0.4 0.2-0.8 0.4-1.3 0.5q0 0-0.1 0 0.6-0.2 1.1-0.5-0.2 0-0.4 0.1-0.1 0.1-0.3 0.1c-0.2 0.1-0.4 0.1-0.5 0.1 0.5-0.1 0.9-0.4 1.4-0.6-0.5 0.2-1 0.4-1.5 0.5 0.3-0.2 0.7-0.3 1.1-0.4q-0.3 0-0.6 0.1-0.4 0-0.7 0.1-0.2 0.1-0.5 0.2c0.4-0.3 1-0.4 1.5-0.5q0-0.1 0-0.1 0 0-0.1 0-0.2 0-0.5-0.2-0.1-0.1-0.2-0.1-0.5 0.1-1.1 0.4-0.1 0-0.3 0.1 0.6-0.4 1.4-0.6c-0.4 0.1-0.7 0.1-1.1 0.2 0.2-0.2 0.5-0.2 0.8-0.3-0.2 0-0.5 0-0.7 0.1 0-0.1 0.1-0.1 0.2-0.2q-0.1 0.1-0.2 0.1c0 0 0 0 0-0.1-0.2 0.1-0.4 0.3-0.5 0.5zm12.5 0.6q-0.5-0.2-0.9-0.3c-0.4-0.1-0.8-0.2-0.9-0.2q0.5 0.2 1.1 0.4-0.4 0-0.8-0.2-0.4-0.1-0.7-0.2c0.4 0.2 0.8 0.4 1.3 0.5-0.4 0-0.8-0.2-1.2-0.3q0.5 0.3 1.1 0.5c-0.5-0.1-1-0.3-1.5-0.6q0.6 0.5 1.3 0.7 0 0 0 0-0.2 0-0.4 0 0.5 0.2 1 0.2c-0.1 0-0.1 0-0.1 0q0 0 0.1 0 0.3 0 0.7 0c0.3 0 0.5-0.1 0.8 0q0.1 0 0.2 0c-0.2-0.2-0.4-0.4-0.6-0.5 0.3 0 0.5 0.3 0.7 0.5q0-0.3-0.1-0.5 0 0 0 0.1 0 0 0-0.1 0-0.3-0.1-0.6c-0.1-0.2-0.3-0.4-0.5-0.6 0 0 0-0.1 0 0-0.1 0 0 0 0 0q0.2 0.2 0.2 0.4c-0.1-0.2-0.3-0.3-0.5-0.4 0 0 0.1 0 0 0q0 0.1 0 0-0.1 0-0.1 0c0 0 0.1 0.1 0.1 0.1-0.2 0-0.5-0.1-0.7 0 0.3 0 0.6 0.1 0.8 0.3q0 0-0.1-0.1-0.3-0.1-0.7-0.1c-0.1 0-0.1 0-0.2-0.1q0 0-0.1 0.1 0.8 0.1 1.4 0.5-0.1 0-0.2 0-0.4-0.2-0.8-0.3-0.2-0.1-0.5-0.1 0 0-0.1 0-0.1 0.2-0.4 0.2-0.1 0.1-0.1 0.1 0.4 0.1 0.7 0.2c0.3 0.1 0.5 0.2 0.8 0.4zm-9.1-12.1c0.4 0 0.8 0.2 1.1 0.4q0-0.1-0.1-0.1-0.2-0.1-0.3-0.2-0.7-0.4-1.5-0.2-0.1 0-0.1 0 0.1 0.1 0.2 0.2 0.5 0.4 0.6 0.9 0 0.1 0 0.2 0 0.2 0.1 0.4c0 0.2 0.2 0.4 0.3 0.4q0-0.1 0-0.2 0-0.2-0.1-0.3-0.1-0.1-0.1-0.2-0.1-0.1 0-0.2c0 0.2 0.1 0.3 0.2 0.5q0 0 0 0.1 0 0.3 0.2 0.5 0.1 0.2 0.2 0.4 0-0.1 0-0.1c0.1-0.2 0.2-0.4 0.5-0.4 0 0 0-0.1 0-0.1q-0.2-0.4-0.1-0.9c0.1-0.3 0-0.3-0.2-0.4q-0.1-0.1-0.1-0.1c0.1 0 0.2 0.1 0.3 0.2-0.1-0.3-0.4-0.4-0.7-0.6q0.4 0.1 0.7 0.5 0-0.2-0.1-0.2-0.4-0.4-1-0.5zm5.7 0.5q0 0.1-0.1 0.1-0.1 0.1-0.2 0.2-0.1 0-0.1 0.1 0.1 0.2 0.1 0.4 0 0.3-0.1 0.7c0 0-0.1 0 0 0q0.3 0.1 0.4 0.3 0 0.1 0.1 0.2 0.1-0.2 0.2-0.4 0.1-0.1 0.1-0.4 0-0.1 0.1-0.1c0-0.2 0.2-0.4 0.2-0.5q0 0 0 0.1-0.1 0.2-0.1 0.3-0.1 0.1-0.1 0.2c0 0.1 0 0.2 0 0.3q0 0 0 0 0.2-0.2 0.3-0.5 0.1-0.3 0.1-0.5 0.1-0.6 0.5-0.9 0.1-0.1 0.2-0.2 0 0 0 0 0 0 0 0-0.4-0.2-0.8-0.1-0.6 0.1-1 0.5-0.1 0-0.1 0.1c0.3-0.2 0.6-0.4 1-0.4q0 0 0 0c-0.4 0-0.7 0.2-0.9 0.4q-0.1 0.1-0.2 0.2c0.4-0.3 0.6-0.4 0.7-0.4-0.2 0.2-0.5 0.3-0.7 0.6 0.2-0.1 0.3-0.2 0.4-0.3zm-9.6 8.8q0.2 0.1 0.3 0.1 0.3 0.1 0.6 0.1 0 0.1 0 0 0 0 0 0-0.1 0-0.1 0-0.6-0.1-1.1-0.5 0 0 0 0c0.4 0.1 0.8 0.3 1.2 0.4q-0.2-0.1-0.4-0.2c0.1 0 0.2 0 0.3 0q-0.1 0-0.3-0.1c0.1 0 0.1 0 0.2 0q-0.2-0.1-0.3-0.1c0.1-0.1 0.3 0 0.4 0q-0.3-0.1-0.7-0.2c0.4-0.1 0.7 0 1 0.1q-0.4-0.1-0.7-0.2c0.1-0.1 0.2 0 0.3 0-0.1-0.1-0.3-0.1-0.4-0.1q0-0.1 0-0.1 0.1 0 0.3 0-0.3-0.1-0.5 0c0.2-0.1 0.4-0.1 0.5-0.1q-0.1 0-0.3 0c0-0.1 0.1-0.1 0.1-0.1-0.1 0-0.2 0-0.3 0.1-0.2 0-0.2 0.1-0.4 0.1 0 0 0.1 0 0.1 0-0.2 0.1-0.4 0.3-0.6 0.4q0.2 0.1 0.2 0.2 0.2 0.3 0.4 0.6 0.2 0.3 0.5 0.5 0.2 0.1 0.4 0.2-0.4-0.2-0.6-0.4c-0.1-0.1-0.2-0.2-0.2-0.3 0.2 0.1 0.3 0.3 0.5 0.3q-0.1 0-0.2-0.1 0 0 0 0 0.4 0.1 0.7 0.2 0 0 0-0.1c-0.1 0-0.3 0-0.4-0.1 0.1 0 0.3 0 0.4 0q-0.2 0-0.4-0.2c0.1 0 0.2 0.1 0.4 0.1-0.2 0-0.3-0.1-0.5-0.2q0.2 0.1 0.5 0.1 0 0 0 0c0-0.1 0-0.1 0-0.1q-0.3 0-0.5-0.1-0.2-0.1-0.4-0.2zm13.1-0.5q0.3-0.1 0.5-0.1 0.2-0.1 0.5 0-0.4 0-0.8 0.2c0.2-0.1 0.4-0.1 0.5-0.1q-0.1 0.1-0.3 0.2c0.1 0 0.1-0.1 0.2 0q-0.2 0-0.3 0.1 0.2 0 0.3 0-0.1 0.1-0.2 0.1-0.1 0-0.2 0c0.5 0 0.8-0.2 1.2-0.4q0 0.1 0 0.1-0.1 0-0.1 0.1-0.5 0.3-1 0.4c-0.1 0-0.1 0-0.1 0 0 0 0 0 0.1 0q0.3 0 0.5-0.1 0.1-0.1 0.3-0.1 0 0 0 0-0.4 0.2-0.8 0.3c-0.1 0-0.1 0-0.1 0 0 0.1 0 0 0.1 0q0.2 0 0.3 0 0.1 0 0.1 0c-0.1 0.1-0.3 0.1-0.5 0.2 0.2 0 0.3-0.1 0.4-0.1q-0.1 0.1-0.4 0.2c0.2 0 0.3-0.1 0.5-0.1-0.2 0.2-0.4 0.2-0.5 0.2q0 0 0 0 0.3-0.1 0.7-0.2 0 0.1 0 0.1-0.1 0-0.2 0.1c0.2-0.1 0.4-0.2 0.5-0.3 0 0.1-0.1 0.1-0.1 0.2q-0.1 0.1-0.2 0.1-0.2 0.2-0.4 0.3 0.1 0 0.1 0 0.5-0.3 0.8-0.7c0.1-0.3 0.2-0.5 0.4-0.7q0.1 0 0 0-0.1-0.2-0.3-0.3-0.1-0.1-0.2-0.1c0 0 0.1 0 0.1 0q-0.1 0-0.1 0-0.1-0.1-0.2-0.1c-0.1-0.1-0.1 0-0.1-0.1q-0.2 0-0.3 0c0 0 0.1 0 0.1 0-0.1 0.1-0.2 0.1-0.3 0.1 0.4 0 0.4 0 0.5 0q-0.2 0-0.5 0.1c0.1 0 0.2 0 0.3 0-0.1 0.1-0.3 0.1-0.4 0.2 0.1 0 0.2-0.1 0.3-0.1q-0.3 0.2-0.7 0.3zm-8.5 3.6q0.1 0.2 0.2 0.4 0 0-0.1 0c-0.1-0.1-0.1-0.3-0.2-0.4q0-0.1-0.1-0.1 0.1 0.2 0.2 0.4 0.2 0.2 0.3 0.3c-0.2 0-0.4-0.2-0.7-0.7 0.2 0.3 0.5 0.7 0.8 0.9-0.3-0.1-0.5-0.3-0.8-0.6 0.1 0.2 0.2 0.3 0.3 0.4 0 0.1 0.1 0.1 0.2 0.2q0.3 0.1 0.6 0.2c0.3 0.1 0.7 0.2 1 0.4q0.1 0 0.1 0.1 0-0.1 0-0.1-0.1-0.1 0-0.2c0-0.1 0-0.2 0-0.3q0 0 0 0 0-0.2-0.1-0.3-0.1-0.2-0.3-0.3c0.2 0.1 0.4 0.3 0.4 0.6q-0.1-0.1-0.1-0.2c-0.1-0.1-0.2-0.3-0.4-0.4 0-0.1-0.1-0.1-0.2-0.1q0.1 0.2 0.2 0.3 0.2 0.1 0.2 0.3-0.1 0-0.1-0.1-0.2-0.2-0.5-0.5c0 0 0 0-0.1 0 0.3 0.3 0.6 0.6 0.7 0.9q0-0.1-0.1-0.1-0.3-0.4-0.7-0.8-0.1 0-0.1 0-0.1 0-0.1 0 0.1 0.1 0 0.1 0 0 0-0.1c0 0-0.1-0.1-0.1-0.1-0.1 0.1 0 0.1 0 0.1q0 0.1 0.1 0.2 0 0 0 0.1-0.2-0.1-0.2-0.3 0-0.1-0.1-0.1 0.1 0.3 0.3 0.4c-0.3 0-0.3-0.3-0.5-0.5zm2 1.1q0.2 0 0.2 0.2-0.1 0.1-0.2 0.1c0 0-0.1 0-0.1 0q0 0.1 0.1 0.1c0.1 0 0.2 0 0.2-0.1q0-0.1 0.1-0.1 0.2 0 0.3-0.1 0-0.1 0.1-0.2 0-0.6 0.4-0.9 0.2-0.2 0.2-0.5 0 0-0.1-0.1-0.1-0.1-0.2-0.2-0.2-0.1-0.3-0.1-0.1 0 0 0 0.1 0.6-0.2 1c-0.1 0.1-0.2 0.2-0.4 0.1q0 0 0 0.1 0 0.1 0.1 0.3 0 0.3-0.2 0.4 0 0.1-0.1 0.1c0 0.1 0 0.1 0 0.2q0.1 0 0.2-0.1 0.1-0.1-0.1-0.2zm-2.6-6.3q0 0.1 0 0.2c0 0 0 0 0 0 0.1 0.1 0.1 0 0.1 0q0-0.1 0-0.2 0-0.5-0.4-0.8-0.1-0.2-0.2-0.3-0.1-0.1-0.1 0-0.1 0.1-0.2 0.1-0.3 0.2-0.5 0.4c0 0-0.1 0 0 0 0 0.1 0 0.1 0 0.2q0 0 0 0 0 0 0 0c0 0.1-0.1 0.3 0 0.4 0 0 0 0 0.1 0q0 0 0 0-0.1-0.2-0.1-0.3 0-0.2 0.1-0.3 0 0.1 0 0.1 0 0.2 0 0.4 0 0 0.1 0c0 0 0 0 0 0q0-0.1 0-0.1 0-0.1 0-0.2 0 0.2 0 0.3 0 0 0.1 0 0.1 0 0.2 0.2 0.1-0.1 0.1-0.1 0.1 0 0.2 0 0.1 0 0.2 0.1 0 0 0 0c0.1-0.2 0.2-0.3 0-0.5q0.1 0 0.2 0.1 0 0.2-0.1 0.4 0 0.1 0 0.1c-0.1 0-0.1 0-0.1 0.1 0.2-0.2 0.2-0.3 0.2-0.5q0 0 0 0.1 0 0.1 0 0.2c0 0 0 0.1 0 0.1q0 0 0-0.1 0.1 0 0.1-0.1zm7.4-0.6q0.1 0.1 0.1 0.2 0 0.1 0 0.3 0 0 0 0 0 0 0 0c0.1-0.1 0.1-0.3 0.1-0.4q0 0 0 0c-0.1 0-0.1 0-0.1-0.1 0.1-0.1 0.1-0.1 0-0.2-0.2-0.2-0.5-0.3-0.7-0.4q0 0 0 0-0.1 0.1-0.3 0.3c-0.1 0.1-0.3 0.3-0.3 0.6q0 0.2 0 0.4 0 0 0 0 0 0 0.1 0 0 0 0-0.1-0.1 0 0-0.1 0 0.1 0 0.1 0 0.1 0.1 0.1c0 0 0-0.1 0-0.1q-0.1-0.1-0.1-0.2 0-0.1 0.1-0.1c0 0.2 0 0.3 0.1 0.5 0-0.1 0-0.1 0-0.1q0 0 0-0.1-0.1-0.2-0.1-0.4 0-0.1 0.1-0.1c-0.1 0.1-0.1 0.4 0 0.5q0.1-0.1 0.2-0.1 0.2 0 0.3 0 0.1 0.1 0.1 0 0-0.1 0.1-0.1 0.1 0 0.1-0.1 0-0.1 0-0.2 0.1 0.1 0.1 0.1 0 0.1 0 0.2 0 0 0 0 0 0 0 0 0.1-0.2 0-0.3 0-0.1 0-0.1zm-10.1-1.5q0 0 0 0 0 0.1 0 0.1 0.1 0.2 0.2 0.5 0 0 0.1 0-0.1-0.2-0.2-0.3c0-0.2 0-0.3 0-0.4q0.1 0.4 0.3 0.8-0.1-0.3-0.2-0.6c0.2 0.2 0.2 0.4 0.3 0.6 0-0.2-0.1-0.2 0-0.3q0 0.1 0.1 0.3c0-0.1 0-0.2 0-0.3q0.1 0.2 0.2 0.4c-0.1-0.2-0.2-0.4-0.2-0.6 0.2 0.2 0.2 0.5 0.3 0.7q0-0.1 0-0.3-0.1-0.1-0.1-0.2c-0.1-0.2-0.1-0.3-0.1-0.3q0.1 0.2 0.2 0.4-0.1-0.4-0.2-0.8 0.1 0.1 0.1 0.2 0-0.2-0.1-0.5c0.2 0.2 0.2 0.5 0.3 0.7 0-0.2-0.1-0.4-0.1-0.6 0.1 0.2 0.1 0.4 0.2 0.6 0-0.2-0.1-0.4-0.1-0.5q0.1 0.1 0.1 0.3 0.1-0.6-0.4-0.8c0.1 0 0.2 0.1 0.3 0.1q-0.2-0.1-0.5-0.3 0 0-0.1 0c-0.1 0.3-0.2 0.5-0.3 0.8q-0.2 0.2-0.1 0.5c0 0 0 0.1 0 0.1q0-0.1 0-0.3zm11.2 0.6q0.3-0.4 0.3-0.8c0 0.3-0.1 0.5-0.2 0.7q0.1 0 0.1 0 0.1-0.3 0.2-0.5 0 0 0 0c0 0 0 0.1 0 0.2q0.1-0.1 0.1-0.1 0-0.3-0.2-0.5c-0.1-0.3-0.2-0.5-0.3-0.7q0-0.1-0.1 0-0.2 0.1-0.4 0.2-0.1 0-0.1 0.1c0.1 0 0.2-0.2 0.3-0.2-0.1 0.2-0.3 0.2-0.4 0.5q0 0.1 0 0.3c0.1-0.2 0.1-0.3 0.1-0.3q0 0.2 0 0.5c0-0.2 0.1-0.4 0.2-0.6q-0.1 0.3-0.1 0.6 0-0.1 0-0.2 0.1-0.1 0.1-0.2 0-0.1 0.1-0.2c0 0.1-0.1 0.3-0.1 0.5q0.1-0.2 0.2-0.3-0.2 0.4-0.3 0.8c0.1-0.1 0.1-0.3 0.2-0.4 0 0.3-0.1 0.6-0.2 0.8 0.1-0.2 0.2-0.5 0.3-0.7 0 0.2-0.1 0.4-0.1 0.6q0.1-0.2 0.2-0.4c0 0.1-0.1 0.2-0.1 0.3q0.1-0.2 0.2-0.3c0 0.1-0.1 0.2-0.1 0.3 0.1-0.2 0.2-0.4 0.3-0.6q-0.1 0.3-0.2 0.6zm-3.9-1.7q0.1-0.2-0.1-0.2 0-0.1 0.1 0 0 0 0 0.1c0.1 0 0.1-0.1 0.1-0.1q0-0.1-0.1-0.1-0.1 0-0.1-0.1 0 0 0 0-0.1 0 0 0.1 0 0 0 0c-0.1 0-0.1 0.1-0.1 0.2q0.2-0.1 0.2 0 0 0.1 0 0.1-0.1 0.1-0.1 0-0.1 0-0.1 0c0-0.1 0.1-0.1 0.1-0.1 0 0 0 0 0 0q-0.1 0-0.1 0.1 0 0.1 0.1 0.1 0.1 0 0.1-0.1zm-6.1 1.9q0 0.1 0 0.1 0 0.1 0 0.1 0.3-0.1 0.5 0 0.3 0 0.4-0.1 0.1-0.1 0.1 0c0 0.1 0.1 0.1 0.2 0.1q0 0 0.1 0 0 0 0-0.1 0.1-0.2 0.2-0.5 0 0 0-0.1-0.3-0.1-0.6-0.2c-0.1 0-0.1 0-0.2 0.1 0 0-0.1 0-0.2 0.1q0 0-0.1 0 0 0 0 0c-0.1 0.1-0.1 0.1-0.2 0q0 0-0.1 0 0 0 0 0c-0.1 0-0.1 0-0.1 0.1q0 0.2 0 0.4zm9.3-0.1q0-0.2-0.1-0.4 0-0.1 0-0.1-0.1 0-0.2 0.1 0 0 0 0c-0.1-0.1-0.2 0-0.3-0.1 0 0-0.1-0.1-0.1-0.1q-0.1 0-0.1 0c0-0.1 0-0.1-0.1-0.1q-0.3 0.1-0.6 0.3-0.1 0-0.1 0 0.2 0.2 0.2 0.5c0 0.1 0 0.1 0.1 0.1q0.1 0 0.1 0 0.1 0 0.1-0.1c0.1 0 0.1 0 0.2 0q0.1 0.1 0.2 0.1c0.2-0.1 0.4 0 0.5 0 0.2 0 0.2 0 0.2-0.2zm-2.6-6.1c0-0.1 0-0.1-0.1-0.1-0.5-0.3-1-0.3-1.5-0.3q-0.2 0-0.3 0.1-0.2 0.1-0.3 0-0.1-0.1-0.2-0.1c-0.6 0-1.1 0-1.7 0.3q0 0 0 0.1c0.5-0.2 1.2-0.4 1.4-0.3q0 0 0 0-0.6 0-1.1 0.2-0.1 0-0.3 0.1 0 0 0 0.1 0 0 0 0 0.4-0.2 0.9-0.3 0.2-0.1 0.5 0-0.2 0-0.4 0-0.5 0.1-0.9 0.3c0 0-0.1 0-0.1 0q0 0.1 0.1 0.1 0 0 0 0 0.3-0.2 0.5-0.2 0.6-0.2 1.2-0.1 0 0 0.1 0c0 0.1 0.1 0 0.2 0 0.1 0 0.1 0 0.2 0q0.1 0 0.1 0 0.7-0.1 1.4 0.2 0.1 0 0.2 0.1 0 0 0-0.1c0.1 0 0 0 0 0q-0.4-0.2-0.8-0.3-0.2 0-0.5 0 0.2-0.1 0.4 0c0.3 0 0.6 0.1 0.9 0.3q0.1 0 0.1 0 0-0.1 0-0.1-0.1 0-0.1 0c-0.3-0.2-0.6-0.2-1-0.3q-0.1 0-0.3 0 0.7 0 1.4 0.3zm-0.5 13.5q0.3 0 0.5-0.1 0 0 0 0.1 0.3-0.1 0.5-0.3 0 0 0.1 0 0-0.2 0.1-0.3 0.1-0.1 0.1-0.2c-0.2 0.3-0.4 0.5-0.7 0.7q0.1-0.2 0.3-0.3 0.1-0.2 0.2-0.3 0.1-0.2 0.2-0.4c-0.2 0.3-0.3 0.6-0.6 0.7 0.2-0.1 0.3-0.4 0.5-0.6q-0.1 0-0.1 0.1-0.1 0.1-0.2 0.2 0 0.1-0.1 0.1 0.1-0.1 0.1-0.3c-0.1 0.1-0.2 0.4-0.4 0.5q0.2-0.2 0.3-0.5-0.1 0-0.1 0.1 0 0.1-0.1 0.2 0 0.1-0.2 0.1 0.1-0.1 0.2-0.3 0 0 0 0 0 0-0.1 0c0 0 0 0 0 0q0 0.1-0.1 0.2 0-0.1 0-0.1c0 0 0.1-0.1 0-0.1q0 0-0.1 0 0 0 0 0-0.4 0.4-0.7 0.8-0.1 0.1-0.1 0.2c0.2-0.2 0.3-0.3 0.6-0.3q-0.3 0.1-0.5 0.2 0.3 0 0.5-0.1 0 0 0 0 0 0-0.1 0zm-4.1-13.8q0 0 0 0-0.2-0.1-0.3-0.1-0.7-0.1-1.2 0.3c-0.1 0.1-0.2 0.2-0.3 0.2-0.1 0-0.1 0-0.1 0.1q0 0 0.1 0 0.2-0.1 0.3-0.1 0.8-0.2 1.6 0.1 0.2 0.1 0.4 0.3 0 0 0.1 0.1 0-0.1-0.1-0.2 0.1 0 0-0.1-0.3-0.3-0.7-0.4-0.1 0-0.1-0.1 0.4 0.1 0.7 0.3 0 0-0.1-0.1-0.2-0.1-0.3-0.1 0-0.1-0.1-0.1c0.1 0 0 0 0 0q-0.2-0.1-0.3-0.2c0.1 0 0.2 0.1 0.4 0.1zm4.5 0.9q0-0.1 0.1-0.1c0.1-0.1 0.2-0.2 0.4-0.3q0.7-0.3 1.4-0.2 0.2 0.1 0.4 0.2 0.1 0 0.1 0c0-0.1 0-0.1 0-0.1q-0.2-0.1-0.4-0.2-0.3-0.3-0.7-0.3c-0.2-0.1-0.4-0.1-0.6 0 0 0-0.1 0.1-0.1 0.1 0.1 0 0.2-0.1 0.4-0.1q-0.2 0.1-0.3 0.2c-0.1 0-0.1 0-0.1 0 0 0.1 0 0.1-0.1 0.1q-0.1 0.1-0.2 0.1-0.1 0.1-0.1 0.1 0.1-0.1 0.3-0.1 0.1-0.1 0.3-0.2 0 0.1 0 0.1-0.4 0.1-0.8 0.4 0 0 0 0 0 0.1 0 0.3zm-3.8-1.4c0.1-0.1 0.1-0.1 0-0.2q-0.1-0.3-0.1-0.7 0-0.4 0.3-0.8c0.2-0.3 0.5-0.5 0.9-0.6q0.1-0.1 0.3 0 0.1 0 0.1-0.1 0.1-0.1 0-0.1-0.2 0-0.4 0c-0.9 0.2-1.4 1-1.3 1.9q0 0.3 0.2 0.6zm2.5-0.1q0 0 0.1 0 0-0.1 0-0.1-0.1-0.1-0.1 0c-0.1 0-0.1 0 0 0.1zm-0.3-1q0.1 0 0.1 0 0-0.2 0.1-0.2 0-0.1 0.1 0 0.1 0.1 0.1 0.3 0.1-0.1 0.2-0.3c0.1 0 0-0.1 0-0.1q-0.2 0-0.5 0-0.5-0.1-1.1-0.1-0.1 0-0.3 0.1c0 0-0.1 0.1 0 0.1q0.1 0.1 0.2 0.3 0-0.2 0.1-0.4 0.1 0 0.1 0 0.1 0.1 0.1 0.1 0 0.1 0.1 0.2c0.1-0.3 0.1-0.3 0.2-0.3-0.2 0.1-0.2 0.3-0.2 0.4q0 0 0 0 0 0 0 0c0-0.1 0.1-0.2 0.2-0.3q0 0.1 0 0.1-0.1 0.1-0.1 0.1c0 0.1-0.1 0.1 0 0.1 0 0.1 0 0 0.1 0q0.1-0.2 0.2-0.3 0 0 0 0.1 0.1 0.1 0.2 0.2 0 0.1 0 0.1c0-0.1 0-0.1 0-0.1q0-0.1-0.1-0.2c0 0 0 0 0 0q0.1 0.1 0.2 0.2c0-0.1 0-0.3-0.2-0.4 0.2 0 0.2 0.2 0.2 0.3zm-4.7 6.2q0.1-0.5 0.2-0.7-0.1 0.2-0.1 0.4 0.2-0.4 0.5-0.8c0 0.1-0.1 0.2-0.1 0.3q0.1-0.2 0.3-0.2 0 0 0-0.1c0 0 0 0 0 0q-0.2-0.1-0.3-0.2-0.1 0-0.1 0.1-0.1 0.2-0.3 0.4c-0.2 0.3-0.3 0.6-0.4 1q0 0.2 0.2 0.3-0.1-0.6 0.1-0.8c0 0.1-0.1 0.2 0 0.3zm8.8 0.4c0 0 0.1-0.1 0.1-0.1q0-0.4-0.1-0.7c-0.1-0.3-0.4-0.6-0.6-0.9q0 0 0 0-0.2 0.1-0.4 0.2 0 0 0 0c0.1 0.1 0.1 0 0.2 0.1q0.1 0 0.2 0.1c0 0-0.1-0.1-0.1-0.1q-0.1-0.1 0-0.1 0.2 0.3 0.4 0.7 0-0.1 0-0.3c0.1 0.2 0.1 0.4 0.2 0.6 0-0.1 0-0.1 0-0.2 0.1 0.2 0.1 0.5 0.1 0.7zm-4 4.5c0.1-0.1 0.1-0.3 0.1-0.5 0.1 0.1 0.1 0.2 0.1 0.3q0 0 0-0.1 0-0.3-0.2-0.5-0.1-0.1-0.2-0.3c-0.1-0.1-0.1-0.2-0.2-0.2-0.2 0.2-0.3 0.5-0.6 0.7q-0.2 0.2-0.1 0.5 0 0 0 0.1c0-0.3 0-0.3 0.1-0.4q-0.1 0.5 0.1 0.6 0-0.1 0-0.2c-0.1-0.2 0-0.4 0.1-0.6q0.2-0.2 0.3-0.4 0.1-0.1 0.1 0 0.1 0.1 0.2 0.2 0.2 0.2 0.2 0.4 0.1 0.2 0 0.4zm-0.4-12.7q-0.2 0.3-0.4 0.5-0.1 0.1-0.1 0.3c-0.1 0.1-0.1 0.1 0 0.1q0.1 0 0.1 0 0.1 0 0.1-0.1 0-0.1 0.1-0.1 0.1-0.2 0.2-0.1 0.1 0 0.2 0.2c0 0-0.1 0.1 0 0.1q0 0 0.1 0 0 0 0.1 0 0.1 0 0-0.1 0-0.1-0.1-0.2-0.2-0.2-0.3-0.4 0-0.1 0-0.2zm-0.4 2.8q0-0.1 0.1-0.2c0.1-0.2 0.2-0.3 0.3-0.5 0 0.3 0.2 0.5 0.3 0.7 0-0.1 0-0.2-0.1-0.3 0.1 0.1 0.1 0.2 0.1 0.3 0.1-0.1 0.1-0.1 0.1-0.2 0 0.1 0 0.2 0 0.2q0 0 0 0 0.1-0.2 0-0.4-0.3-0.2-0.4-0.6-0.2 0.3-0.4 0.5 0 0.1-0.1 0.2c-0.1 0.1-0.1 0.3 0 0.3q0-0.1 0-0.2c0 0.1 0 0.1 0 0.2 0.1-0.1 0.1-0.2 0.2-0.3-0.1 0.1-0.1 0.2-0.1 0.3zm1.4 13.5q-0.2 0.2-0.3 0.4-0.1 0.1 0 0.3 0 0 0 0.1 0 0 0 0.1 0.1 0 0.1-0.1 0 0 0 0c0.1-0.1 0.2-0.1 0.3-0.2q0.2-0.3 0.5-0.6 0 0 0 0 0-0.1 0-0.1-0.3 0.3-0.6 0.6c0.1-0.2 0.3-0.4 0.4-0.6-0.1 0.1-0.1 0-0.2 0.1-0.2 0.1-0.4 0.3-0.5 0.5q0 0.1 0 0.1c0-0.3 0.2-0.4 0.3-0.6zm-0.8-3.5q0.1 0 0.1-0.1 0.1-0.2 0-0.5c-0.1-0.2-0.2-0.3-0.3-0.5q-0.1 0.1-0.1 0.2-0.2 0.2-0.3 0.4-0.1 0.3 0 0.5c0 0.1 0 0.1 0.1 0.1q0 0 0-0.1-0.1-0.1-0.1-0.3c0.1-0.1 0.1-0.2 0.2-0.3 0-0.1 0.2-0.1 0.3 0q0.2 0.1 0.2 0.3 0 0.1-0.1 0.3zm-4.2-0.8q0.2 0.1 0.3 0c0.3 0 0.5-0.3 0.5-0.5q0-0.1 0-0.2 0-0.1-0.2 0-0.1 0-0.1 0.1 0 0.1 0 0.2-0.2 0.3-0.5 0.4zm-0.1-0.7q-0.1 0.1-0.2 0c0 0-0.1 0-0.1 0q0.1-0.1 0.1 0 0.1 0 0.2 0 0 0 0 0 0-0.1-0.1-0.2c0 0-0.1 0-0.1 0.1q-0.3 0.2-0.3 0.5 0 0.1 0 0.1c0.1 0 0.2 0 0.2 0q0.1-0.1 0.2-0.2c0-0.1 0.1-0.1 0.1-0.3zm8.4 0.4q0.2 0 0.2-0.1-0.1-0.2-0.2-0.4-0.1-0.1-0.2-0.2-0.1 0-0.1 0.1-0.1 0.1 0 0.3 0.1 0.1 0.1 0.2c0.1 0.1 0.1 0.1 0.2 0.1zm-4.4 6.7c0-0.1 0.1-0.2 0.1-0.3 0 0 0 0 0 0q0-0.1 0-0.1 0.1-0.1 0.1-0.1c-0.1 0 0 0 0-0.1q0-0.1 0.1-0.2 0 0 0 0 0 0 0-0.1-0.1 0.2-0.3 0.4 0 0 0 0 0.1-0.2 0.1-0.3c-0.1 0.1-0.2 0.3-0.3 0.4q0-0.1 0-0.1 0.1-0.1 0.2-0.2 0 0 0-0.1-0.1 0-0.1 0.1 0 0-0.1 0 0-0.1 0 0 0 0-0.1 0 0 0.1-0.2 0.1 0.3 0.2 0.5 0.6zm3.4-7q-0.1 0.1-0.2 0.1 0 0 0 0.1 0.1 0 0.1 0.1 0.2 0.3 0.5 0.2 0.1 0 0.1 0-0.4-0.2-0.5-0.6 0-0.1-0.1-0.1-0.1-0.1-0.1 0c0 0 0 0 0 0q0.1 0 0 0.1 0 0 0 0.1 0 0 0 0 0.1 0 0.2 0zm0.6 0.1q0-0.3-0.2-0.5-0.2-0.1-0.3 0.1 0 0.1 0 0.1c0 0.2 0.1 0.3 0.2 0.4q0 0.1 0 0.1 0.1-0.1 0.2-0.1 0.1 0 0.1-0.1zm-7.5-0.2q0 0 0 0c0-0.1 0-0.2-0.1-0.2q-0.1 0-0.1 0.1-0.2 0.1-0.2 0.4c0 0.1 0.1 0.2 0.2 0.2q0 0 0.1-0.1c0-0.1 0.1-0.2 0.1-0.4zm4.4-0.5c0 0-0.1 0 0 0 0-0.1 0 0 0 0 0.1 0 0.1-0.1 0.1-0.1q0 0 0 0 0 0 0 0c-0.1 0 0-0.1 0-0.1q0 0 0 0c-0.1 0-0.1 0.1-0.1 0 0 0 0 0 0.1 0q0 0 0 0-0.1-0.1-0.2-0.2-0.1-0.1-0.2-0.1 0 0 0 0.1c0 0 0 0 0 0-0.1 0 0 0.1-0.1 0.1 0.1 0 0 0 0 0 0 0.1 0 0.1 0.1 0.1q-0.1 0.1-0.2 0.1 0.2 0 0.3 0.1c-0.1 0-0.1 0-0.1 0 0.1 0.1 0.2 0 0.3 0zm-2.6 1.7q0.4 0.2 0.8 0.3-0.1 0-0.2 0-0.1 0-0.2 0c0.2 0.1 0.5 0.2 0.6 0.1q0 0 0 0c-0.1-0.1-0.2-0.1-0.1-0.3q0 0 0 0-0.1-0.1-0.1-0.2 0 0 0 0-0.1 0-0.3 0c0.1 0.1 0.1 0 0.2 0.1-0.2 0-0.3-0.1-0.5-0.1q0.3 0.1 0.5 0.2 0 0 0 0-0.1 0-0.2 0c0.1 0 0.2 0 0.3 0.1-0.3 0-0.5-0.2-0.8-0.2zm2.2 4.7q0 0 0 0 0 0 0 0.1 0 0 0.1 0.1 0 0 0.1 0 0 0 0-0.1 0-0.1-0.1-0.1-0.1-0.1-0.1-0.3-0.1-0.1-0.1-0.2 0 0.1-0.1 0.2 0 0.2-0.1 0.4c0 0 0 0.1 0.1 0q0.1 0 0.1 0.1c0 0.1 0.1 0.2 0.2 0.1q0.1 0 0.1 0c0-0.1-0.1-0.1-0.1-0.1q-0.1 0-0.2-0.1 0-0.1 0.1-0.1zm0.3-4.4q0.3 0 0.6-0.1c-0.2-0.1-0.3 0-0.4 0q0.4-0.1 0.8-0.3-0.2 0-0.4 0.1c-0.2 0-0.3 0.1-0.5 0 0.2 0 0.3 0 0.4-0.1q-0.1 0.1-0.2 0.1 0 0 0 0 0.2-0.1 0.5-0.2c-0.2 0-0.3 0.1-0.5 0.1 0-0.1 0.1-0.1 0.1-0.1q-0.1 0-0.2 0c0 0 0 0.1-0.1 0.1q0 0.1 0 0.1 0 0 0 0c0.1 0.1 0 0.1 0 0.2q-0.1 0-0.1 0.1zm-1.6-11.7c0.6 0 1.1 0 1.6 0-0.4-0.2-1.2-0.2-1.6 0zm0-0.5c0 0.1-0.1 0.1-0.2 0.1 0.1 0 0.1 0 0.2 0q-0.1 0.1-0.2 0.1 0 0 0 0.1c0 0 0 0 0.1 0q0.1-0.1 0.2-0.2c-0.1 0.1-0.2 0.2-0.3 0.3q0.1-0.1 0.2-0.1c0 0 0 0 0 0 0 0.1 0 0 0 0.1 0 0 0 0 0 0q0.1 0 0.2 0c0.1 0 0-0.1 0-0.1q0-0.2 0.1-0.4 0.1 0 0.1 0c-0.2 0-0.3 0.1-0.5 0.1 0 0 0.1 0 0.1 0zm1.9 0.4c-0.1-0.1-0.2-0.1-0.3-0.2q0 0 0 0 0.1 0 0.2 0.1c0 0 0.1 0 0.1 0q0 0 0 0-0.1-0.1-0.1-0.1 0 0-0.1-0.1c0 0 0.1 0.1 0.1 0 0 0-0.1 0-0.1-0.1 0 0 0 0 0.1 0-0.2 0-0.3-0.1-0.5-0.1q0.2 0.2 0.1 0.4 0 0.1 0.1 0.1 0.1 0 0.2 0c-0.1 0 0-0.1-0.1-0.1 0.1 0 0.2 0.1 0.3 0.1zm-1.7-1.6q0.3-0.2 0.7-0.3 0-0.1 0 0 0.1 0.1 0.2 0.1c0.2 0.1 0.4 0.2 0.5 0.4q0 0 0 0 0.1 0 0.2 0-0.1-0.1-0.2-0.2c-0.2-0.2-0.4-0.3-0.6-0.4q0 0-0.1 0c-0.2 0.1-0.4 0.2-0.5 0.2q0 0.1 0 0.1c0 0-0.1 0-0.2 0.1zm0.9 13.2q0-0.1 0-0.1c-0.1-0.1-0.1-0.2-0.2-0.2q-0.1 0-0.2 0.1-0.1 0.2 0 0.4 0 0.1 0.1 0.1 0.2 0 0.2-0.1 0.1-0.1 0.1-0.2zm-1.3-10.3q0-0.1 0-0.1c0.1-0.2 0.2-0.2 0.3-0.1q0 0.1 0 0 0.1-0.1 0.3-0.2 0 0-0.1 0-0.2 0-0.5 0-0.1 0.1-0.3 0.1-0.2 0-0.1 0.2 0 0 0 0.1 0.1-0.1 0.1-0.2c0.1-0.1 0.1-0.1 0.2 0q0 0.1 0.1 0.2zm-1.6 4.1q-0.1-0.3-0.3-0.4-0.1-0.1-0.1 0-0.1 0.1-0.1 0.1-0.2 0.2-0.3 0.5c0 0 0 0 0 0.1q0.1-0.3 0.3-0.5c-0.1 0.1-0.1 0.2-0.2 0.3q0.1-0.1 0.2-0.2c0-0.1 0.1 0 0.1 0q0 0 0 0c0 0.1 0.1 0 0.1 0q0 0 0.1 0c0 0 0.1 0.1 0.2 0.1zm2.5-7.9q0.1-0.1 0.2-0.2 0-0.1 0-0.1 0 0 0.1 0 0 0 0 0 0.1 0.1 0.1 0.3 0.1 0.1 0.1 0.2 0 0.1 0.1 0.2 0.1-0.1 0.1-0.1-0.1-0.2-0.1-0.3c-0.1-0.2-0.2-0.4-0.3-0.6-0.1 0.2-0.3 0.4-0.4 0.6 0.1 0 0.1 0 0.1 0 0 0 0 0 0 0zm0.6 3.4q0.1 0.1 0.2 0.2 0.1 0.1 0.1 0c0.1-0.1 0.1-0.1 0.2 0q0.1 0.1 0.1 0.2 0-0.1 0.1-0.2c0.1-0.1 0.1-0.1 0.1 0 0.1 0 0.1 0.1 0.2 0.2q0-0.1 0-0.1c0-0.1 0-0.1 0-0.2q-0.1 0-0.1 0-0.4 0-0.7-0.1-0.1 0-0.2 0zm2.9 4.7c0.1 0 0.1 0 0.1-0.1-0.1-0.2-0.3-0.4-0.4-0.6q-0.1 0-0.1 0-0.2 0.2-0.3 0.4 0 0 0 0 0.2 0 0.3 0 0 0 0 0c0-0.1 0.1-0.1 0.1-0.1 0 0 0 0 0 0q0.1 0.1 0.2 0.3c0-0.2-0.1-0.3-0.1-0.4 0.1 0.1 0.1 0.2 0.2 0.5zm-2.6-7q-0.2-0.2-0.4-0.3c-0.1-0.1-0.2-0.1-0.3-0.2q0 0 0 0-0.1 0.1-0.2 0.2-0.2 0.1-0.4 0.1 0 0.1-0.1 0.1 0.2 0 0.3-0.1c0 0 0 0 0 0.1 0.1-0.1 0.2-0.2 0.4-0.2q0-0.1 0 0c0.2 0 0.3 0.1 0.4 0.2q0.1 0.1 0.3 0.1zm-0.9 3.3q0 0 0 0.1 0.1 0.1 0.2 0.1 0 0 0.1-0.1 0-0.1 0-0.3 0-0.1-0.1-0.1-0.1 0-0.2 0.1 0 0.1 0 0.2zm-0.2 6.8c-0.1 0-0.1 0.1 0 0.2q0 0.1 0.2 0.2 0.2 0.2 0.5 0c0 0 0 0 0 0 0-0.1 0-0.1-0.1-0.1q0 0 0 0-0.1 0-0.2 0-0.3 0-0.4-0.3zm-2.3-7.9q0 0-0.1 0 0 0 0 0.1 0 0.1 0 0.3c0 0.2 0 0.2 0.2 0.1q0 0 0 0 0 0 0 0 0-0.2 0-0.4 0-0.1-0.1-0.1zm1.7 5.6q0-0.2 0.1-0.4 0 0-0.1 0-0.1 0-0.2-0.1 0 0 0 0 0 0.1-0.1 0.2 0 0.1-0.1 0.2 0 0.1 0 0.1 0 0 0.1 0 0 0 0-0.1 0.2-0.1 0.3-0.2 0-0.1 0-0.1 0 0 0 0.1c-0.1 0.1 0 0.2 0 0.3q0 0 0 0zm3.7-5.5c0-0.1 0-0.1-0.1-0.1q0 0-0.1 0 0 0 0 0.1 0 0.1-0.1 0.3c0 0.1 0 0.1 0.2 0.1q0 0.1 0 0 0.1-0.2 0.1-0.4zm-5.7 9.7c0-0.1 0-0.1 0-0.1-0.1 0-0.1 0-0.1 0.1q-0.1 0.2-0.3 0.4c0 0-0.1 0-0.1 0 0 0.1 0.1 0 0.1 0q0.2 0 0.3-0.2 0.1-0.1 0.1-0.2zm0.4-10.2q0 0.1 0 0 0.1-0.1 0.1-0.1c0-0.2 0-0.2-0.1-0.3q-0.1 0-0.1 0 0 0.1 0 0.2c-0.1 0.2-0.1 0.2 0.1 0.2q0 0 0 0zm0.3 1.6q0-0.1 0-0.1-0.1-0.1-0.1-0.2c0 0-0.1-0.1-0.1-0.1 0 0-0.1 0-0.1 0q-0.1 0.1 0 0.1 0 0.1 0.1 0.2c0 0.2 0 0.2 0.2 0.1q0 0 0 0zm5.6 8.9q0 0 0 0 0 0 0 0 0 0 0-0.1-0.3-0.1-0.3-0.4 0 0-0.1 0 0 0-0.1 0 0 0.1 0.1 0.2 0 0.1 0.1 0.2 0.1 0.1 0.3 0.1zm-5.3-5.8q0-0.1 0-0.1 0-0.1-0.1-0.1c-0.3 0.1-0.4 0.4-0.5 0.6q0.1-0.1 0.1-0.1c0.2-0.2 0.3-0.3 0.5-0.3zm4.5-4.6q0-0.1 0.1-0.1 0.1 0 0-0.1 0-0.1 0-0.1c-0.1-0.2-0.1-0.2-0.2-0.1q-0.1 0 0 0.1 0 0.1 0 0.2 0 0.1 0.1 0.1zm-0.2 1.5q0 0 0 0 0.1-0.1 0.2-0.3 0 0 0 0-0.1-0.1-0.1-0.1-0.1 0-0.1 0 0 0.2-0.1 0.3 0 0 0 0.1 0 0 0.1 0zm-3.9-3.1q0 0 0 0-0.2 0.1-0.3 0.2c-0.1 0-0.1 0 0 0.1q0 0.1 0.1 0 0.1-0.1 0.2-0.1 0.1-0.1 0.1-0.2 0 0 0 0-0.1 0-0.1 0zm3 0c0 0 0 0.1 0 0.1 0 0 0 0.1 0 0.1q0.2 0.1 0.3 0.2 0 0 0.1 0 0-0.1 0-0.1 0.1 0 0-0.1-0.1-0.1-0.3-0.2 0 0-0.1 0zm1.1 6.5c-0.1-0.1-0.2-0.3-0.3-0.4q-0.1-0.1-0.2-0.1c-0.1 0-0.1 0-0.1 0.1q-0.1 0 0 0 0.2 0 0.3 0.2 0 0 0.1 0.1 0 0.1 0.2 0.1zm-1.6 0.5q0 0.1 0 0.1 0.1 0.2 0.3 0.3 0 0 0.1 0 0 0-0.1 0c0-0.2-0.1-0.3-0.1-0.4q0-0.1 0 0-0.1 0-0.2 0zm-1.2-7.4q0.1 0 0.1 0 0.2-0.1 0.4 0 0.1 0.1 0.2 0.1c0-0.1-0.3-0.3-0.4-0.3q0 0 0 0-0.2 0.1-0.3 0.2-0.1 0-0.1 0c0.1 0 0.1-0.1 0.2 0 0 0-0.1 0-0.1 0zm-0.7 3.5q-0.1-0.2 0-0.3c0-0.1 0-0.1-0.1-0.1 0 0-0.1-0.1-0.1 0q0 0.2 0 0.3c0 0.1 0 0.1 0.1 0.1q0.1 0 0.1 0zm2.1-0.2q0 0 0-0.1c0-0.1 0-0.1-0.2-0.1q0 0 0 0 0 0.2 0 0.4 0 0 0 0 0.2 0.1 0.2-0.1 0 0 0-0.1zm-3.4-2q0 0 0 0 0.1-0.1 0.2-0.3c0 0 0 0-0.1 0q0-0.1 0-0.1-0.1 0-0.1 0-0.1 0.1-0.2 0.2 0 0.1 0 0.1 0.1 0 0.2 0.1zm4.4-0.4q0 0 0 0c-0.1 0.1-0.1 0.1 0 0.2q0 0.1 0 0.1c0.1 0.1 0.1 0.1 0.2 0q0.1 0 0 0-0.1-0.2-0.2-0.3 0 0 0 0zm-4.1 6.9q0-0.1 0.1-0.1c0 0 0 0 0 0q0-0.1-0.1-0.1c-0.1 0.1-0.1 0.1 0 0.2q0 0 0.1 0.1 0 0 0 0c0 0 0.1 0 0.1-0.1q0 0 0 0-0.1 0-0.1 0c0 0-0.1 0-0.1 0zm3.4 0.8c0.3-0.4 1-1.5 0.8-1.7q0 0.1 0 0.1-0.2 0.6-0.6 1.2c0 0.1-0.1 0.2-0.2 0.3q-0.1 0 0 0.1zm-1.7 2c0 0.2 0.1 0.3 0.2 0.3 0.3 0 0.4-0.1 0.4-0.2q-0.1 0-0.2 0.1c0 0.1-0.2 0.1-0.3 0 0-0.1-0.1-0.1-0.1-0.2zm-4.3 1q0 0-0.1 0.1-0.1 0.1-0.1 0.3 0 0.1 0 0.1 0 0 0.1 0c0 0 0 0 0 0q0 0 0-0.1c0.1-0.1 0.1-0.2 0.1-0.3 0.1 0 0-0.1 0-0.1zm3.7-11.4c-0.1 0 0 0-0.1 0q-0.1 0-0.3 0.1-0.1 0 0 0 0 0 0 0.1 0 0 0.1 0 0.1 0 0.2-0.1 0.1 0 0.1-0.1zm5.6 11.7q-0.1-0.2-0.2-0.3c0-0.1 0-0.1-0.1-0.1q0 0.1 0 0.1 0.1 0.2 0.2 0.4-0.1 0 0 0 0 0 0 0 0.1 0 0.1-0.1zm-6.5-5.1q-0.1 0-0.2 0 0 0 0 0.1 0 0.3 0.1 0.5 0 0 0.1-0.1 0-0.1 0-0.1c-0.1-0.1-0.1-0.2 0-0.4zm0.4-3.7c0 0-0.1 0-0.1 0.1q-0.1 0.2-0.1 0.4c0.1 0.1 0.1 0 0.1 0q0.1 0 0.1-0.1-0.1-0.2 0-0.4zm2.5-2.9q0-0.1 0-0.2 0 0 0 0 0 0 0.1 0c0 0.1 0 0 0 0q0.1 0 0.1-0.1 0-0.1-0.1-0.1-0.1 0-0.2 0.1 0 0.1 0 0.2 0 0.1 0.1 0.1zm0.2 2.9q0.1 0.2 0 0.4c0 0.1 0 0.1 0.1 0.1 0 0 0 0 0-0.1q0.1-0.1 0-0.3c0-0.1 0-0.1-0.1-0.1zm-0.5-2.8q0 0.1 0.1 0.1 0.1 0 0.2 0.1c0.1 0 0.1-0.1 0.1-0.1q0-0.1 0-0.1-0.2 0-0.3-0.1-0.1 0-0.1 0.1zm0.9 6.5c0.1 0.1 0.1 0.2 0 0.3 0 0.1 0 0.1 0.1 0.3q0.1-0.2 0.1-0.4c0-0.2 0-0.2-0.2-0.2zm-1.5-7.5c0.1 0 0.1 0 0.1-0.1-0.1-0.2-0.2-0.3-0.2-0.5q-0.1 0.1-0.1 0.2c0 0 0 0 0 0q0 0 0 0c0.1 0.1 0 0.1 0 0.1q0 0 0 0.1 0.2-0.1 0.2 0.2zm-4.3 10.1q0.5 0.1 0.9 0.3c0 0 0.1 0 0.1 0 0-0.1 0-0.1-0.1-0.1q-0.3-0.2-0.8-0.2 0-0.1-0.1 0zm4.1 6.8q0 0.2-0.2 0.5-0.1 0.2-0.3 0.2-0.1 0 0 0 0 0.1 0 0.1 0.1 0 0.2-0.1 0.3-0.3 0.3-0.7zm-4.5-7q0 0 0 0.1 0 0 0 0 0 0.1 0.1 0c0.1 0 0.2-0.3 0.2-0.4 0 0-0.1 0-0.1 0 0 0-0.1 0 0 0.1 0 0 0 0.1 0 0.2q-0.1 0-0.2 0zm3.9 7.6c0 0 0 0 0.1 0 0.2 0 0.4-0.2 0.4-0.4q-0.2 0.3-0.5 0.4zm1.4-15.1c-0.1-0.1-1.7-0.1-1.7 0 0.5-0.1 1.1 0 1.7 0zm3.1 7.6q0-0.1-0.1 0-0.2 0-0.4 0.1-0.2 0.1-0.4 0.1-0.1 0.1 0 0.1 0 0 0 0 0 0 0.1 0 0.3-0.2 0.8-0.3zm-5.1-8.6q0 0 0-0.1c-0.2 0-0.4 0.1-0.3 0.2 0 0.1 0 0.1 0 0.1q0 0 0.1-0.1 0-0.2 0.2-0.1 0 0 0 0 0-0.1 0.2-0.3-0.1 0.1-0.2 0.1 0 0.1 0 0.1c-0.2-0.1-0.4 0-0.4 0.2q0 0-0.1 0 0 0-0.1 0 0.1 0 0.2 0.1c0-0.2 0.1-0.3 0.2-0.3q0.2 0 0.2 0.1zm0.8 9.3q0 0.3 0.2 0.4c0.1 0.1 0.2 0.1 0.4 0.1q-0.1-0.1-0.2-0.1-0.2 0-0.2-0.2c0-0.1-0.1-0.1-0.2-0.2zm4.7-0.8q-0.1 0-0.1-0.1-0.1-0.1 0-0.2 0 0 0 0 0-0.1-0.1-0.1 0 0 0 0.1c-0.1 0.1 0 0.3 0.1 0.4q0.1 0 0.1-0.1 0.1 0 0.1 0 0-0.1-0.1 0zm-3.9-8.9q0.1 0 0.1 0c0.1 0 0.1 0 0.1-0.1 0 0 0 0-0.1 0q-0.1 0-0.2 0-0.1 0-0.1 0 0 0.2 0.1 0.1 0.1 0 0.1 0zm-2.3 0.6q0 0 0 0.1 0 0.1-0.2 0.1c-0.1 0.1-0.1 0.2-0.1 0.3q0 0.1 0 0.1-0.1 0-0.1 0.1 0.1-0.1 0.2-0.1-0.1-0.2 0-0.3 0.2-0.1 0.2 0 0 0 0 0-0.2 0-0.2 0.1 0 0.1 0 0.2 0 0 0.1 0 0 0 0 0-0.1-0.3 0.1-0.3 0 0 0.1 0 0 0-0.1 0c0-0.1 0-0.2 0-0.2q0-0.1 0-0.1zm0.6 7.3c0 0 0-0.1-0.1-0.1q0-0.1 0-0.1 0 0 0 0 0-0.1 0 0-0.1 0.1-0.2 0.1c0 0 0 0.2 0 0.2q0.1-0.3 0.2-0.2 0 0 0 0-0.1 0.1-0.1 0.2 0 0.1 0.1 0.1 0.1 0.1 0.1 0c0-0.1 0-0.2-0.1-0.2-0.1 0 0 0.1-0.1 0.1q0.1 0 0.2 0 0 0.1-0.1 0.1-0.1 0-0.1 0 0-0.1 0-0.1 0-0.1 0-0.1c0.1-0.1 0.1 0 0.2 0zm-2.5 4.1q-0.2 0.1-0.3 0c0 0 0-0.1-0.1-0.1 0 0 0 0.1-0.1 0.1q-0.1 0.1 0 0.1c0.1 0.1 0.4 0 0.5-0.1zm7.5-0.1q0 0 0 0 0.2 0.1 0.4 0.1 0 0 0 0 0.1-0.1 0-0.1 0 0 0-0.1-0.1 0-0.1 0-0.1 0.1-0.2 0.1-0.1 0-0.1 0zm-3.8-12c0.1 0 0.1 0.1 0.1 0.1q0 0.1 0 0c0 0 0.1 0.1 0.1 0 0-0.1-0.1-0.2-0.1-0.2q-0.1 0-0.1 0c0 0-0.1 0-0.1 0.1q0 0 0 0.1 0 0 0 0 0.1 0.1 0.1 0 0-0.1 0-0.1zm-1 5.4c0-0.1-0.3-0.2-0.6-0.2 0.2 0.1 0.4 0.1 0.6 0.2zm0.7 5.1c-0.2 0.1-0.2 0.1-0.1 0.3q0.1-0.1 0.2-0.1 0-0.1 0-0.1-0.1-0.1-0.1-0.1zm1.4-5.1c0.2-0.1 0.4-0.1 0.5-0.2-0.2-0.1-0.5 0-0.5 0.2zm-5.1 3.6c0 0-0.1 0-0.1 0q0 0.1-0.2 0.2c0 0 0 0.1 0 0.1 0 0 0.1 0 0.1 0q0.2-0.1 0.2-0.3c0 0 0.1 0 0 0zm3.3-0.2q0-0.1-0.1-0.2-0.2-0.4-0.4-0.8c0 0 0-0.1 0-0.1 0 0.1 0 0.1 0 0.1q0.1 0.2 0.1 0.4 0.1 0.3 0.4 0.6zm0.3-8.7q0 0 0 0 0 0 0.1 0 0.1 0 0.1-0.1 0 0 0 0 0-0.1-0.1-0.1-0.1 0-0.2 0c0 0 0 0.1 0 0.2 0 0 0 0 0 0q0.1 0 0.1 0zm4.5 8.8q-0.1 0-0.1 0 0.1 0.2 0.3 0.3c0 0 0 0.1 0 0 0 0 0-0.1 0-0.1q-0.1 0-0.2-0.2 0 0 0 0zm-3.1-8.6q0.1 0 0.1 0.1 0 0 0 0.1c0 0.1 0 0.1 0.1 0q0 0 0.1 0 0.1 0 0.1 0.2 0 0 0.1 0c0 0 0 0 0 0q0-0.2-0.1-0.2-0.1-0.1-0.3 0c0.1-0.1 0.2-0.1 0.3-0.1q-0.1 0-0.2 0 0 0-0.1 0 0-0.1-0.1-0.1zm-1.4 1.7q0-0.2-0.1-0.3c0-0.1-0.1 0-0.1 0q-0.1 0.1-0.1 0.3 0 0 0 0c0 0.1 0 0 0 0 0.1 0 0.1-0.1 0.1-0.2q0.1-0.1 0.1 0 0.1 0.1 0.1 0.2 0 0 0 0 0 0 0 0zm1.2 0q0-0.2-0.1-0.3-0.1 0-0.1 0-0.1 0.1-0.1 0.3c-0.1 0-0.1 0 0 0.1q0 0 0-0.1 0-0.1 0.1-0.2 0 0 0.1 0 0 0.1 0 0.2 0 0.1 0.1 0.1 0 0 0-0.1zm-0.7 0.6q-0.1 0-0.1 0.1 0 0 0 0-0.1 0.1-0.1 0.2c0.1 0 0.1 0 0.1 0q0.1 0 0.1 0c0 0 0 0 0 0q0.1-0.1 0-0.1 0-0.1 0-0.2zm-0.9 5.5q0 0 0-0.1-0.1 0-0.1-0.1 0-0.1 0-0.1c-0.1 0-0.1-0.1-0.1-0.1 0.1-0.1 0.1-0.1 0-0.2-0.1 0.2-0.1 0.2 0 0.3q0 0.1 0 0.1 0.1 0.1 0.2 0.2zm0.3 5.4q0.1 0 0.2 0 0.1 0 0.1 0.1c0.2 0 0.3 0 0.4 0q0-0.1 0-0.1 0 0 0 0-0.2 0-0.4 0-0.1 0-0.3 0zm0.3-13.1c0-0.2-0.1-0.2-0.2-0.2-0.1 0-0.2 0.1-0.2 0.2q0.1 0 0.1 0 0-0.2 0.2-0.2 0.1 0 0.1 0.2 0 0 0 0c0 0 0.1 0 0.1 0 0-0.1 0.1-0.1 0-0.2 0 0.1-0.1 0-0.1 0 0.1 0.1 0.1 0.1 0 0.2zm-0.7 2.3q-0.3 0-0.6 0 0 0 0 0 0 0.1 0 0.1 0.2-0.1 0.4-0.1 0.2 0 0.3 0 0 0 0 0 0-0.1 0 0-0.1 0-0.1 0zm1.9 5.6q-0.1 0-0.1 0 0 0.2 0 0.4 0 0.2 0 0.3 0-0.4 0.1-0.7zm0-5.6q0 0-0.1 0c0 0 0-0.1 0 0 0 0 0 0 0 0q0.3 0 0.7 0.1 0 0 0-0.1 0 0 0 0-0.3 0-0.6 0zm-2.5 0.1c0 0.1 0 0.1 0.1 0.1q0.2-0.1 0.5-0.1 0.1 0 0.1 0c0-0.1-0.1 0-0.1 0q-0.3 0-0.6 0zm-1.3 6.5q0 0.4-0.3 0.8 0.4-0.4 0.3-0.8zm3.9-6.5q0.1 0 0.2 0 0.1 0 0.2 0.1 0.1 0 0.1-0.1 0 0 0 0-0.4 0-0.7 0 0 0 0 0 0 0 0 0 0.1 0 0.2 0zm-1.1-1.8q-0.1 0-0.1 0.1-0.1 0 0 0.1 0 0 0 0 0.1-0.1 0.1-0.1 0-0.1 0.1 0 0.1 0 0.1 0c0 0.1 0 0.1 0 0.1 0 0 0-0.1 0-0.1 0-0.1-0.1-0.1-0.2-0.1zm-2.3 1q0 0.2 0.1 0.2 0 0.1 0 0.1 0.1-0.1 0-0.1-0.1-0.1-0.1-0.2 0.1-0.1 0.1-0.1 0.1 0 0.1-0.1 0 0-0.1 0c-0.1 0.1-0.1 0.1-0.1 0.2zm3.7 5.4q0-0.3 0-0.5 0-0.1 0-0.1 0 0-0.1 0.1 0 0 0 0 0 0.2 0 0.4 0 0 0.1 0.1zm-3.7-5.8q0 0.1 0.1 0.1 0.1 0.1 0.1 0 0 0 0 0-0.1-0.1 0-0.2 0-0.1 0.1-0.1 0 0 0 0 0 0 0 0c-0.1 0-0.3 0.1-0.3 0.2zm1 5.9c0.1-0.1 0.1-0.1 0.1-0.2q-0.1-0.2-0.1-0.4 0 0 0 0c0 0 0 0 0 0q0 0.3 0 0.6zm3.7-5.5q0-0.1-0.1-0.2c-0.1 0-0.1 0-0.1 0q0 0.1 0 0.1 0.1 0 0.1 0.1 0.1 0.1-0.1 0.2 0 0 0 0.1 0 0 0.1 0 0.1-0.1 0.1-0.3zm-2.9 8c0 0.1-0.1 0-0.1 0.1 0.1 0.1 0 0.2 0.1 0.2q0 0 0 0 0 0 0 0c0 0 0 0 0 0q0.1 0 0.1 0c0 0 0.1 0 0-0.1q0-0.1-0.1-0.2zm2.4-6.9q0.1 0.1 0.1 0.1 0.1 0 0.2-0.1 0-0.1 0-0.2c-0.1 0-0.1-0.1-0.1-0.1 0 0.1 0 0.1 0 0.1q0 0.1 0 0.1 0 0.2-0.2 0.1zm-3.8 0q-0.1 0.1-0.1 0-0.1-0.1 0-0.2 0 0 0-0.1 0 0-0.1 0c0 0.1-0.1 0.2 0 0.3q0 0.1 0.1 0.1c0.1 0 0.1 0 0.1-0.1zm1.7-4.4q-0.1 0-0.1 0-0.1 0.1-0.1 0.2 0.1 0.1 0 0.1-0.1 0-0.1 0.1 0.1 0.1 0.2 0.1c-0.1-0.2 0-0.4 0.1-0.5zm3 10.5c0 0.2 0.1 0.7 0.3 0.8q-0.2-0.4-0.3-0.8zm-0.5-7.6q0-0.1-0.2-0.2 0 0 0 0c0 0 0 0 0 0q0.2 0.1 0.1 0.3 0 0 0 0.1 0 0 0 0 0.1-0.1 0.1-0.2zm-2.1-2.4c0.1-0.1 0-0.2 0-0.3q-0.1 0-0.1 0c0 0.1-0.1 0.2 0 0.3 0 0 0-0.1 0.1-0.1 0 0 0 0 0 0.1zm-0.2 16.4q0 0.1 0 0.1 0 0.2 0 0.5 0 0 0 0 0 0 0 0c0.1-0.2 0.1-0.4 0-0.6zm-2.2-13.3q-0.1 0.1-0.1 0.2c0 0.1 0.1 0.3 0.2 0.3q0 0 0-0.1 0 0 0 0 0 0 0 0c-0.2-0.1-0.2-0.2-0.1-0.3q0.1 0 0-0.1zm4.6 0.2q0 0-0.1-0.1c0 0-0.1-0.1-0.1 0q0 0 0 0c0.1 0.1 0.1 0.2 0 0.3q0 0 0 0-0.1 0-0.1 0 0 0.1 0.1 0.1c0.1 0 0.2-0.1 0.2-0.3zm-3.5 5.8q-0.1 0.1-0.1 0.1 0 0.1 0.1 0.2 0 0 0 0 0.1 0 0.1-0.1c0 0-0.1-0.1-0.1 0 0 0 0.1 0 0 0q0 0.1 0 0.1-0.1 0-0.1-0.1 0-0.1 0.1-0.1 0 0 0 0 0-0.1-0.1-0.2 0 0 0 0c0 0.1 0 0.1-0.1 0.2q0.1-0.1 0.2-0.1zm-2.1 1.9c0-0.2 0.1-0.4 0.2-0.5 0-0.1 0.1-0.1 0-0.1 0 0 0 0-0.1 0q0 0.2-0.1 0.4 0 0.1 0 0.2zm2-7q0 0 0 0.1c0 0.1 0 0 0.1 0q0 0 0 0-0.1-0.2 0-0.3c0-0.1 0-0.1 0-0.1q-0.1 0-0.1 0 0 0.2 0 0.3zm4.5 6.9q0 0 0-0.1-0.1-0.2-0.2-0.5 0 0-0.1 0 0 0 0 0.1c0.1 0.1 0.2 0.3 0.3 0.5zm-4.9-2.9q-0.1 0-0.1 0.1 0.1 0.1 0.2 0.1 0.1 0 0.1-0.1c0 0 0-0.1-0.1-0.1q-0.1-0.1-0.1 0 0 0 0.1 0c0 0 0 0 0.1 0q0 0.1-0.1 0.1-0.1 0.1-0.1 0 0-0.1 0-0.1zm3.3-0.1q0 0.1 0 0.1-0.1 0.1-0.1 0.1-0.1 0-0.1-0.1c0-0.1 0.1-0.1 0.1 0q0 0 0-0.1 0 0 0 0-0.1 0-0.1 0.1-0.1 0.1 0 0.1 0.1 0.1 0.2 0c0 0 0-0.1 0-0.2zm-1.5-6.8q0 0 0 0c0 0.1 0 0.1 0.1 0.1q0 0.1 0 0 0-0.1 0.1-0.1 0.2 0 0.2 0.1 0 0 0 0 0-0.2-0.1-0.2-0.1 0-0.2 0.1 0 0 0 0.1c-0.1 0-0.1-0.1-0.1-0.1zm-0.2-1q0-0.1 0-0.1c0 0-0.1-0.1-0.2 0 0 0 0 0.1 0 0.1 0 0 0 0.1 0 0.1q0.1 0 0.1-0.1 0 0 0-0.1 0.1 0 0.1 0.1 0 0 0 0zm-1.3 3.9q0 0.1 0 0.1 0 0.1 0.1 0.1 0-0.1 0-0.1-0.1-0.2 0-0.4c0 0 0 0 0 0q0 0-0.1 0 0 0.1 0 0.3zm1.7-4q-0.1 0-0.1 0c0 0.1-0.1 0.1 0 0.1 0 0 0 0 0 0q0-0.1 0.1 0 0 0 0 0c0 0.1 0.1 0.1 0.1 0.1q0 0 0 0 0-0.2-0.1-0.2c0-0.1 0 0 0 0q0 0 0 0zm0.9 4q0-0.2 0-0.3-0.1 0-0.1 0c0 0 0 0 0 0q0 0.2 0 0.4 0 0 0 0 0.1 0.1 0.1 0 0-0.1 0-0.1zm-5.4 7.1q-0.2 0-0.5 0 0 0 0 0.1 0 0 0 0 0.2 0 0.4 0 0 0 0.1-0.1zm8.2-0.1q0.1 0.1 0.2 0.1 0.1 0 0.3 0 0 0 0.1 0 0 0-0.1 0-0.2-0.1-0.5-0.1zm-3-8.4q-0.1 0.1-0.2 0.2 0 0 0 0.1 0 0 0 0 0.1 0 0.1-0.1 0 0 0.1-0.1 0-0.1 0-0.1zm0.3 1.4q0-0.1-0.1-0.3 0 0 0 0c0 0 0 0 0 0.1q0 0.1 0 0.3c0 0 0 0.1 0 0.1q0.1 0 0.1-0.1 0-0.1 0-0.1zm0.1-3.1c0 0 0-0.1 0-0.1q0.1 0 0.1-0.1 0 0-0.1 0-0.1 0-0.1 0c0 0.1 0 0.2 0.1 0.2zm-2.9 7.1q0-0.2 0-0.4c0 0.1 0 0.1-0.1 0.2 0.1 0 0.1 0 0.1 0.1-0.1-0.1-0.3-0.1-0.3 0 0.1-0.1 0.2 0 0.3 0.1zm-2.5 3c-0.3 0-0.5 0-0.7 0q0 0 0 0.1c0 0 0 0 0 0q0.3-0.1 0.6 0 0 0 0.1-0.1zm2.9-8.4q0 0 0 0 0.1 0.2 0.1 0.3 0.1 0 0.1 0c0-0.1 0-0.1 0-0.1q-0.1-0.1-0.2-0.2zm2.2 6.3q0 0.1 0 0.2 0 0 0 0 0.1 0.1 0.1 0.1-0.1 0.1-0.1 0.1-0.1 0-0.1-0.1 0 0.1 0.1 0.1 0 0 0.1 0c0-0.1 0-0.2-0.1-0.2 0.1-0.1 0.1 0 0.1 0q0-0.1-0.1-0.2zm-2.7-5.1c-0.1 0-0.1 0-0.1 0q-0.1 0.2-0.1 0.4 0 0.1 0.1 0.1 0-0.1 0-0.1 0-0.2 0.1-0.4zm0.7 11q-0.1 0-0.2-0.1 0.1 0.1 0.2 0.2 0 0 0 0c0.1-0.1 0.1 0 0.2 0q0 0.1 0.1 0.1c-0.1-0.1-0.3-0.3-0.4-0.3q0.1 0.1 0.1 0.1zm4.8-3.9c0 0.1 0 0.1 0.1 0.1q0.2-0.1 0.5 0 0 0 0.1 0 0-0.1-0.1-0.1-0.1 0-0.2 0c-0.1 0-0.3 0-0.4 0zm-2.3-3c0-0.1 0-0.1-0.1-0.1 0 0-0.1 0-0.1 0 0 0 0 0 0.1-0.1q-0.1 0-0.1-0.1c0 0.1-0.1 0.2-0.1 0.3 0.1 0 0.2-0.2 0.3 0zm-3.4-4.1q-0.1 0.2 0 0.5 0 0 0 0 0 0 0-0.1 0-0.1 0-0.2 0-0.1 0-0.2zm0.9-0.4c0.1-0.1 0.1-0.1 0-0.2 0 0 0 0-0.1 0q0 0.1-0.1 0.2 0 0 0 0 0.1 0 0.1 0 0-0.1 0.1-0.1c0 0 0 0 0 0.1zm-0.5 4.8c-0.1 0.1-0.3 0-0.3 0.2 0.1-0.1 0.1-0.1 0.3 0 0-0.1 0-0.2 0-0.2zm0.5 5.6c0 0.1 0.2 0.2 0.3 0.3-0.1-0.1-0.1-0.3-0.3-0.3zm0.3-11.2q-0.1 0.1-0.1 0.1c0 0.1 0 0.2 0.1 0.1q0 0 0 0 0-0.1 0-0.2zm-0.3 1.2q0 0.2 0 0.3 0 0 0 0 0.1 0 0.2 0c-0.1-0.1-0.2-0.2-0.2-0.3zm2.5 0c0.1 0.2 0.1 0.3 0.1 0.4q-0.1 0.1 0 0.1 0 0 0 0 0.1-0.3-0.1-0.5zm-2-0.9q-0.3 0-0.7 0.1 0.1 0 0.1 0 0.3 0 0.6 0 0 0 0-0.1zm1.1 0.5q0 0 0 0 0.1-0.1 0.1-0.1 0.1 0 0.1 0.1 0 0 0 0 0 0 0 0 0.1 0 0.1 0-0.1-0.1-0.2-0.2 0 0 0 0c-0.1 0-0.1 0.1-0.1 0.2zm0.6 4.7q0 0.1 0 0.1 0 0.1 0 0.1 0 0 0 0 0.1-0.1 0.2 0 0.1 0 0.1 0c-0.1-0.1-0.2-0.1-0.3-0.2zm-3.2-6.4q0 0 0.1 0 0 0.1 0 0 0 0 0 0 0-0.1 0-0.1 0.1-0.1 0.2-0.1 0 0.1 0 0 0 0 0 0-0.1-0.1-0.2 0-0.1 0.1-0.1 0.2zm2.7 12c-0.2 0-0.2 0.2-0.3 0.2q0.2 0 0.3-0.2zm0.7-9.9q0.1 0.2 0.1 0.4c0 0-0.1 0 0 0.1 0 0 0-0.1 0-0.1q0-0.2 0-0.4 0 0-0.1 0zm0.4 4.5c0-0.1 0-0.1-0.1-0.1q0 0 0 0 0 0 0 0 0.1 0.1 0.1 0.1-0.1 0.1-0.1 0-0.1 0-0.1 0 0 0.1 0 0.1c0 0 0.1 0.1 0.1 0q0.1 0 0.1-0.1zm-1.1-4.5c0 0.2-0.1 0.2-0.2 0.3q0.1 0 0.1 0 0.1 0 0.1 0 0-0.1 0-0.3zm-0.3-1.2q0 0.1 0 0.2-0.1 0.1 0 0.1c0.1 0 0.1 0 0.1-0.1q0-0.1-0.1-0.2zm0.4 0.4q-0.3-0.1-0.6-0.1c0.2 0.1 0.4 0.1 0.6 0.1zm0.7 11.2q-0.2 0.1-0.5 0.2-0.1 0 0 0 0 0 0 0c0.2 0 0.4-0.1 0.5-0.2zm-2.7-12.9q0 0 0-0.1 0.1-0.1 0.2-0.1c0 0 0.1 0 0.1 0.1q0 0 0 0 0.1 0 0 0c0-0.1-0.1-0.2-0.2-0.1q-0.1 0-0.1 0.2zm-0.3 2.1q0 0 0 0c0 0 0-0.1 0.1-0.1 0.1 0 0.1 0 0.1 0.1q0 0 0 0 0 0 0 0 0-0.1-0.1-0.2 0 0 0 0-0.1 0.1-0.1 0.2zm0.9 14.8c-0.3 0.2-0.3 0.3-0.3 0.4 0-0.2 0.2-0.2 0.3-0.4zm2-16.6c0.1 0 0.2 0 0.2 0.1q-0.1 0.1 0 0.1c0 0 0 0 0-0.1 0 0 0-0.1 0-0.2-0.1 0-0.2 0-0.2 0q-0.1 0-0.1 0.1 0 0 0.1 0 0-0.1 0 0zm-3.2 2.5q0 0 0 0.1c0.1 0 0 0 0.1 0 0 0 0 0 0 0q0-0.2 0-0.4c0 0 0.1 0 0-0.1q0 0 0 0.1-0.1 0.1-0.1 0.3zm-2.7 7.2q0-0.1 0-0.1-0.1 0.1-0.2 0.1-0.1 0 0 0 0 0 0 0.1 0 0 0 0 0.1-0.1 0.2-0.1zm8.6-0.2q0.1 0.1 0.2 0.2 0 0 0 0 0.1-0.1 0.1-0.1 0 0 0 0-0.1 0-0.3-0.1zm-2.8-7.4q0 0.1 0 0.1 0.1 0.2 0.1 0.4c0 0 0 0 0 0 0 0 0 0 0 0q0.1-0.2 0-0.4 0-0.1-0.1-0.1zm-2-2.5q0.1 0 0.2 0 0.1 0 0 0 0-0.1-0.1-0.1-0.1 0-0.1 0.1zm1.6 2.2c0.1 0 0.1-0.1 0.2-0.1 0.1 0 0.1 0.1 0.1 0.1q0-0.1-0.1-0.2 0 0 0 0-0.1 0.1-0.2 0.2zm-0.6 14.7c0.1 0.1 0.3 0.2 0.3 0.3 0-0.1 0-0.2-0.3-0.3zm-0.8-14.8c0 0 0.1-0.1 0.1-0.1q0-0.1-0.1-0.1c0 0-0.1 0-0.1 0.1q0 0.1 0.1 0.1zm1.4-2c0-0.1-0.1-0.2-0.1-0.2-0.1 0-0.2 0-0.3 0.1q0 0 0 0 0.1 0.1 0.1 0 0-0.1 0.1 0 0.1 0 0.1 0.1 0 0 0.1 0zm-0.7 1.8q-0.1 0-0.1 0.1c0 0 0 0.1 0.1 0.1q0.1 0 0.1-0.1c0 0-0.1-0.1-0.1-0.1zm-1.2 1q0-0.1-0.1-0.1 0-0.1 0.1-0.3c0 0 0 0-0.1 0 0 0 0 0 0 0q0 0.1 0 0.2c0 0.1 0 0.2 0.1 0.2zm-0.7-0.8q0 0 0 0.1c0 0.1 0 0.1 0.1 0.1q0-0.1 0-0.1 0-0.1-0.1-0.1zm2-2.1q0 0 0 0 0 0 0 0 0.1 0 0.1 0c-0.1-0.1-0.2-0.1-0.2-0.1q-0.1 0.1-0.1 0.1c0.1 0.1 0.1 0 0.1 0q0 0 0.1 0zm0.6 7.8q0.1-0.2 0.2-0.5 0 0 0 0-0.1 0-0.1 0 0 0.2-0.1 0.4 0 0 0 0.1zm-0.2-4.9q0.1-0.2 0.1-0.4 0 0 0 0-0.1 0-0.1 0 0 0 0 0.1 0.1 0 0 0.1c0 0.1 0 0.1 0 0.2zm0.8 3.6q0 0.1 0.1 0c0-0.1 0-0.2 0-0.3-0.1 0-0.1 0-0.1 0q0.1 0 0.1 0.1 0 0.2-0.1 0.2zm-5.6 1.7c0 0 0 0 0 0.1 0 0 0 0.1 0 0.1q0.1 0 0.1-0.1 0-0.1-0.1-0.1zm2.3-1.9q0-0.1-0.1 0c-0.1 0.1 0 0.2 0 0.3 0 0 0 0 0.1 0q-0.1-0.1-0.1-0.2 0-0.1 0.1-0.1zm2.2-4.2q-0.1 0-0.1 0.1c0 0 0.1 0.1 0.1 0.1q0.1 0 0.1-0.1c0-0.1-0.1-0.1-0.1-0.1zm0.9 0q0 0 0 0.1 0 0 0 0.1 0.1 0 0.1-0.1 0-0.1-0.1-0.1zm-2.2 10.5c0-0.1 0-0.2-0.2-0.3q0.1 0.2 0.2 0.3zm1.6-0.4c-0.1 0-0.1 0.1-0.1 0.3 0.1-0.1 0.1-0.2 0.1-0.3zm-1.3-10.1q0 0-0.1 0c0 0-0.1 0-0.1 0.1q0 0 0.1 0.1c0 0 0.1-0.1 0.1-0.2zm1.4 11q0.3 0 0.6-0.1c-0.2 0-0.4 0-0.6 0.1zm-0.8-15.5c0.1 0 0 0.1 0.1 0.1q0-0.1 0-0.2-0.1 0-0.1 0-0.1 0.1 0 0.3c0-0.1 0-0.2 0-0.2zm-0.4 13q0 0 0-0.1 0.1 0 0.1-0.1 0 0 0 0 0-0.1-0.1 0 0 0-0.1 0.1 0 0 0 0 0.1 0.1 0.1 0.1zm-2.5-9.1c0 0 0 0 0 0 0 0.1 0 0 0 0q0.1 0.1 0.2 0.1 0 0 0-0.1 0 0 0 0-0.1 0-0.2 0zm2.3-2.4q0 0 0-0.1 0 0 0.1-0.1c0 0 0 0.1 0 0q0 0 0 0-0.1 0-0.1 0-0.1 0.1 0 0.1 0 0 0 0.1zm1-0.7q0 0.2 0.1 0.3c0-0.1 0-0.2-0.1-0.3zm3.2 9.8q0 0.1 0.1 0.1c0.1 0 0.1-0.1 0.1-0.1 0 0-0.1 0-0.1 0q-0.1 0-0.1 0zm-1.9-7.6q0.2 0.1 0.1 0.3c0 0 0 0 0 0q0 0 0.1 0 0-0.1 0-0.2-0.1-0.1-0.2-0.1zm0.2 0q0-0.1-0.1-0.1-0.1 0.1-0.1 0 0-0.1-0.1-0.2c0.1 0.1 0.1 0.2 0 0.3q0 0 0 0 0 0 0 0c0.1 0 0.1 0 0.2 0q0 0 0.1 0zm-2.2 0.2c0.2 0 0.4 0 0.6 0.1q0 0 0 0 0-0.1 0-0.1c-0.2 0-0.4 0-0.6 0zm-2 5.9q0-0.1 0.1-0.1c0 0 0 0 0 0q0-0.1-0.1-0.1c-0.1 0.1-0.1 0.1 0 0.2zm4.7-5.1q0.1 0 0.1 0 0.1 0 0.1-0.1 0 0-0.1 0 0 0-0.1 0 0 0 0 0 0 0.1 0 0.1zm-2.6-3.5q-0.2 0-0.2 0.1c0 0-0.1 0 0 0q0 0.1 0.1 0 0-0.1 0.1-0.1zm-2.7 3.5c0 0-0.1 0.1 0 0.1q0.1 0 0.2 0 0 0 0-0.1 0 0 0 0c-0.1 0-0.2 0-0.2 0zm4.9 5.1q0-0.1 0-0.1c0-0.1 0-0.1-0.1-0.1q0 0 0 0c0 0 0 0.1 0 0.1 0.1 0 0.1 0 0.1 0.1zm-4.6-5q0 0.1 0.1 0.2c0 0 0 0 0 0.1-0.1 0-0.1 0-0.1 0.1q0.1-0.1 0.2-0.2-0.1-0.1-0.2-0.2zm0.9 5.7q0 0.1 0.1 0 0.1 0 0-0.1c0-0.1-0.1-0.1-0.1-0.1q0 0 0 0.1c0 0 0 0 0.1 0q0 0 0 0.1c0 0-0.1 0-0.1 0zm-0.1-0.9q0.1 0 0.1 0 0.1 0 0.1 0c0-0.1-0.1-0.1-0.2-0.1q0 0 0 0 0 0.1 0 0.1 0 0 0.1 0c0-0.1-0.1-0.1-0.1-0.1q0 0 0 0 0.1 0 0.1 0.1c0 0 0 0-0.1 0zm1.1 3.7q0.1-0.1 0.2-0.2 0 0 0 0 0 0 0 0-0.1 0-0.2 0.1 0 0 0 0.1zm0.7 4.1c0 0.2-0.1 0.4-0.1 0.6q0.1-0.3 0.1-0.6zm-0.7-15.5q-0.1 0-0.1 0.1c0 0.1 0.1 0.1 0.1 0.1 0 0 0-0.1 0-0.1q0-0.1 0-0.1zm-0.2 13.5c0-0.1 0.1-0.2 0-0.3q-0.1 0.2 0 0.3zm2.8-11.6q0.1 0.1 0 0.2 0 0 0 0 0.1 0.1 0.2 0.1 0-0.1-0.1-0.1-0.1 0 0 0 0-0.1-0.1-0.2zm0.3 1.1q0 0.1-0.1 0.1c0 0.1 0.1 0.1 0.1 0.2 0-0.1 0-0.1 0-0.1q-0.1-0.1 0-0.1 0-0.1 0-0.1zm0.3-0.1q0 0 0.1 0 0 0 0-0.1 0 0-0.1 0 0 0 0 0c-0.1 0-0.1 0-0.1 0.1 0 0 0 0 0.1 0zm-1 4.8c-0.1 0-0.1 0-0.1-0.1q0 0 0 0c0.1 0 0 0 0 0q0 0 0.1 0 0 0 0-0.1-0.1 0-0.1 0-0.1 0-0.1 0.1 0 0.1 0.2 0.1zm-4.2-5.7q0 0 0 0 0 0.1 0 0.1 0.1 0 0.1 0 0 0.1 0.1 0 0 0 0 0-0.1-0.1-0.2-0.1zm3.3 11.4c0.1-0.1 0-0.2 0-0.3 0 0.1 0 0.1 0 0.3zm-0.7-14.4q-0.1 0.1-0.1 0.2c0 0-0.1 0 0 0q0 0 0 0 0.1-0.1 0.1-0.2zm2.3 3.2q0.1-0.1 0.2-0.1 0 0 0-0.1 0 0-0.1 0 0 0.1-0.1 0.1 0 0 0 0.1 0 0 0 0zm-0.8 6.4q-0.1 0-0.1-0.1 0 0 0-0.1c0 0 0.1 0 0.1 0q0 0 0 0 0-0.1-0.1-0.1c0 0.1-0.1 0.1-0.1 0.2q0 0 0.1 0.1 0 0 0.1 0zm-2 9.5q-0.1 0.1-0.3 0.2c0.1-0.1 0.3-0.1 0.3-0.2zm-1.7-16.7q0 0 0 0.1 0 0 0.1 0.1 0 0 0 0 0 0 0.1-0.1c0 0-0.1-0.1-0.2-0.1zm0 2.2q-0.1 0-0.2-0.1 0 0.1 0.1 0.1 0.1 0 0 0.1 0 0 0 0.1 0-0.1 0.1-0.2zm4.1-2q0.1 0 0.1-0.1 0.1 0 0.1-0.1-0.1 0-0.1 0 0 0.1-0.1 0.1c0 0.1 0 0.1 0 0.1zm-1.1-0.6q-0.1 0-0.1 0.1-0.1 0-0.2-0.1 0 0 0 0 0.1 0.1 0.1 0.2 0.1-0.1 0.2-0.2zm-1.9 1.7q-0.1 0.1 0 0.2c0 0 0.1 0 0.1 0q0-0.1-0.1-0.2zm-1.1 0c-0.1 0.1-0.1 0.2-0.1 0.3q0.1-0.2 0.1-0.3zm2.7-2.6q0.2 0 0.1-0.1 0 0 0 0 0 0 0 0-0.1 0.1-0.1 0.1zm0.5 2.6q-0.1 0.1-0.1 0.2c0 0 0.1 0 0.1 0q0-0.1 0-0.2zm-1.4 8.4c-0.1 0-0.1 0.1-0.2 0.1q-0.1 0 0 0.1 0.1-0.1 0.2-0.2zm4.2-1.5c0 0 0 0 0 0q-0.1 0-0.1 0 0 0.1 0.1 0.1c0 0 0 0 0-0.1zm-4.5-8.4c0-0.1 0-0.1 0.1-0.2q-0.1 0.1-0.2 0c-0.1 0-0.1 0-0.1 0 0.1 0 0.1 0.1 0.2 0.2zm0 2.3q-0.1 0-0.1 0.1 0 0.1 0.1 0.1c0 0 0-0.1 0-0.1q0-0.1 0-0.1zm-3.6 6.8q0-0.1-0.1-0.1c0 0-0.1 0-0.1 0q0 0.1 0.1 0.1 0 0 0.1 0zm2.2-6.2c0.1 0 0.1 0 0.1 0.1q0 0.1 0 0.1 0.1-0.1 0-0.1c0-0.1 0-0.1-0.1-0.1q0 0 0 0zm4.4-0.6q-0.1 0.1-0.2 0.1 0 0.1 0.1 0.2c0-0.1 0-0.1 0-0.1q-0.1-0.1 0-0.1 0 0 0.1-0.1zm2 6.6q-0.1 0-0.1 0.1 0 0 0.1 0 0 0 0 0 0-0.1 0-0.1zm-6.5-2.2c0 0.1 0 0.2 0.1 0.1 0 0 0.1 0 0-0.1q0 0.1-0.1 0zm0-5.4q0-0.1 0.1-0.2-0.2 0.1-0.1 0.2zm-0.4 0.1q0 0.1 0 0 0 0 0 0-0.1 0-0.2 0 0-0.1 0 0 0 0 0 0 0.1 0 0.2 0zm3.2 15.5q-0.1-0.1-0.2-0.2c0 0.1 0.1 0.2 0.2 0.2zm-4.7-8.7c0.1 0 0.1 0 0.1-0.1q0 0 0 0-0.1 0-0.1 0.1 0 0 0 0zm6.2-6.4c0.1-0.1 0.1-0.2 0-0.3q0 0.2 0 0.3zm-6.1 6.7c0 0 0 0.1 0.1 0.1q0 0 0-0.1 0-0.1 0-0.1c-0.1 0-0.1 0.1-0.1 0.1zm2.1-7.8q-0.2 0-0.1 0.1 0.1-0.1 0.1-0.1zm5.9 7.4q-0.1-0.1-0.1-0.1-0.1 0-0.1 0.1c0 0 0.1 0 0.1 0q0 0 0.1 0zm-1.4-6.7q-0.1 0-0.1 0-0.1 0-0.1 0 0 0.1 0.1 0.1 0.1-0.1 0.1-0.1 0.1 0 0.1 0 0 0-0.1 0zm-4.8 1.5q-0.1 0.1-0.1 0.1c-0.1 0-0.1 0-0.1 0.1q0.1 0 0.1 0 0 0 0.1-0.1 0 0 0-0.1zm0-0.9q-0.1 0.2 0 0.2 0-0.1 0-0.2zm4.3 4.7q-0.1 0-0.1 0c0 0-0.1 0-0.1 0 0 0 0 0 0 0q0.1 0.1 0.2 0zm-1.7 3.4c0.1 0 0.1 0 0-0.1 0 0-0.1 0-0.1 0 0 0 0 0 0 0.1q0 0 0 0c0 0 0.1 0 0.1 0q0-0.1 0-0.1 0 0 0 0.1 0 0 0 0zm1.5-9.2q0-0.2-0.1-0.2 0 0.1 0.1 0.2zm-3.2-1.4q0-0.1-0.1-0.1-0.1 0-0.1 0.1 0 0.1 0.1 0.1-0.1-0.1 0-0.1c0-0.1 0 0 0.1 0zm3.4 3.4q-0.1 0.1 0 0.1 0 0.1 0.1 0.1 0 0 0 0 0-0.1 0-0.1 0 0-0.1-0.1zm-0.1 0q-0.1 0-0.1 0-0.1 0-0.1 0 0 0.1 0 0.1 0 0 0 0.1 0.1 0 0.1-0.1c0-0.1 0-0.1 0.1-0.1q0 0 0 0zm0-1.8q0 0.1 0 0.1 0 0.1 0.1 0.1 0 0 0-0.1 0 0-0.1-0.1zm2 7.8q0 0 0 0 0 0.1 0.1 0.1 0 0 0-0.1c0 0 0 0-0.1 0zm-1.9-6.7q0.1-0.1 0-0.1 0 0 0 0.1zm-4.6 0.1q0-0.1-0.1-0.1-0.1 0.1-0.1 0.1-0.1 0-0.1 0 0.1 0 0.1 0c0 0 0.1 0 0.1 0q0.1 0 0.1 0zm1.1-0.1q0.1 0 0.2 0c0 0-0.1-0.1-0.1-0.1q-0.1 0-0.1 0.1zm0.9 7.2c0 0-0.1 0 0 0.1 0 0-0.1 0 0 0q0.1 0 0-0.1zm-3.7-0.4c0 0 0-0.1 0-0.1 0 0.1-0.1 0.1-0.1 0.1q0 0.1 0.1 0.1 0 0 0-0.1zm6.8-6.7q0 0 0 0-0.1 0-0.2-0.1 0 0 0 0.1 0 0 0 0 0.1 0 0.2 0 0 0 0 0zm-3.3 6.4q-0.1 0-0.1 0.1 0 0.1 0.1 0 0 0 0 0 0-0.1 0-0.1zm-0.3-8.6q0.1-0.1 0.2-0.1-0.1-0.1-0.2 0.1zm2.6 7.5q0 0 0-0.1 0.1 0 0 0 0-0.1 0 0-0.1 0-0.1 0c0.1 0 0 0.1 0.1 0.1zm-3.6-4.9q0-0.1-0.1-0.2-0.1 0.1 0.1 0.2zm3.9 0q0.1-0.1 0.1-0.2-0.1 0.1-0.1 0.2zm-2.2 7.6q0 0 0 0 0 0 0 0-0.1 0.1-0.1 0.1c0 0-0.1 0.1 0 0.1 0 0 0 0 0-0.1q0.1 0 0.1-0.1zm-4.1-1.9q0 0 0 0 0 0 0 0c0 0-0.1 0.2-0.1 0.2q0 0 0 0c0.1 0 0.1-0.1 0.1-0.2zm2.7-0.7c0-0.1 0-0.1 0-0.1q0-0.1 0-0.1 0 0-0.1 0 0 0.1 0 0.1 0.1 0 0.1 0.1zm-2.3 1.2c0 0-0.1-0.1-0.1 0 0 0 0 0.1 0 0.1q0.1 0 0.1-0.1zm7.9-0.1c0 0-0.1 0-0.1 0q0.1 0.1 0.1 0.1c0.1 0 0.1-0.1 0.1-0.1q0 0-0.1 0zm-3.1-8.8c0 0-0.1 0-0.1 0 0 0.1 0.1 0.1 0.1 0.1q0.1 0 0.1 0 0-0.1-0.1-0.1zm3.4 8.4c0 0 0 0.1 0.1 0.1q0 0 0 0 0-0.1-0.1-0.2 0 0 0 0.1zm-3 2.8c0-0.1-0.1-0.2-0.2-0.2 0.1 0.1 0.1 0.2 0.2 0.2zm0-9c0 0 0 0 0 0q0 0 0-0.1-0.1 0-0.1 0.1c0 0 0.1 0 0.1 0zm-3.7-1.5q-0.1 0-0.1 0 0 0 0 0.1 0.1 0 0.2 0 0 0 0 0-0.1 0-0.1-0.1zm2.2-1.1q0 0 0 0.1c0 0 0 0 0 0 0 0 0 0 0 0q0-0.1 0.1-0.1 0-0.1-0.1-0.1c0 0 0 0 0 0.1q0 0 0 0zm2 0.7q-0.1-0.1-0.1-0.1-0.1 0.1-0.2-0.1 0 0 0 0 0 0.1 0 0.2 0.2-0.1 0.3 0zm-1.8 9.8q0.1 0.1 0.2 0c-0.1 0.1-0.1 0-0.2 0zm-4.5 0.7q0-0.1 0-0.2 0 0 0 0-0.1 0-0.1 0c0 0.1 0 0.1 0.1 0.2zm3.9-11.2q0 0 0 0 0-0.1-0.1-0.1 0 0.1 0 0.1 0 0 0 0.1 0 0 0 0 0.1 0 0.1 0 0-0.1 0-0.1zm3 1.3q0.1-0.1 0.1-0.1 0 0 0-0.1 0 0 0 0-0.1 0.1-0.1 0.1 0 0 0 0.1 0 0 0 0zm-1.7-1.2q0 0 0 0 0 0 0 0c0.1 0 0.1 0 0.1-0.1q0 0 0 0-0.1 0-0.1 0 0 0 0 0.1zm3.8 11c0.1-0.1 0.1-0.1 0.1-0.2q0 0 0 0 0 0 0 0 0 0.1-0.1 0.2zm-3.6-11.4q0-0.1 0-0.1 0-0.1 0 0-0.1 0 0 0 0 0 0 0.1 0 0 0 0 0 0 0 0zm-1.7 9.1c-0.1 0-0.1-0.1-0.1-0.1-0.1 0.1-0.1 0.1 0 0.2q0-0.1 0.1-0.1zm0.7 3.7q0.1 0 0.3 0-0.2-0.1-0.3 0zm-2.1-8.9q0.1-0.1 0.2-0.1 0 0-0.1-0.1 0 0 0 0 0 0.1-0.1 0.1 0 0 0 0.1 0 0 0 0zm1.7-4.2c-0.1 0-0.2 0-0.2 0.1q0 0 0 0 0.1 0 0.1 0c0-0.1 0-0.1 0.1-0.1zm0 14q0-0.1-0.1-0.1 0 0.1 0.1 0.1zm1.9-8c0 0-0.1 0-0.1 0.1q0.1-0.1 0.1-0.1zm-2.6 0.1c0-0.1-0.1-0.1-0.2-0.1q0.1 0.1 0.2 0.1zm-3.3 3.9c0 0 0 0.1 0 0.1q0.1 0 0.1-0.1c0 0-0.1-0.1-0.1-0.1 0 0 0 0.1 0 0.1zm6.1-8.6q0 0.1 0.1 0.1 0 0 0 0 0 0 0 0 0-0.1-0.1-0.1zm-3.1 0q-0.1 0-0.1 0-0.1 0 0 0.1c0 0 0 0 0 0q0-0.1 0.1-0.1zm3.6 2.6q0 0 0 0.1 0 0 0 0 0.1 0 0.1 0.1 0.1 0 0.1-0.1-0.1 0-0.2-0.1zm-4.5-2.4q0 0.1 0.1 0.2 0 0 0 0 0.1-0.1 0-0.1c0 0-0.1 0-0.1-0.1zm1.8 8.4q-0.1 0-0.1 0.1 0 0 0 0 0 0 0 0 0.1 0 0.1-0.1zm-0.1 0.9q-0.1-0.1-0.1-0.2-0.1 0.1 0.1 0.2zm-1.3-9.8q0 0 0 0.1 0 0 0.1 0.1 0 0 0 0c0-0.1-0.1-0.2-0.1-0.2zm2.2 10.5c0-0.1-0.1-0.2-0.1-0.2q0 0.1 0.1 0.2zm2.3-9.9q-0.1 0-0.2 0.1 0 0 0 0 0 0 0.1 0c0 0 0.1-0.1 0.1-0.1zm-1.6 1.5c0 0 0.1 0 0.1 0q0-0.1-0.1-0.1 0 0 0 0.1c0 0 0 0 0 0zm-3.2-1c0 0.1 0 0.1 0 0.2q0.1 0 0.1 0-0.1-0.1-0.1-0.2zm4.4-1q0-0.1-0.1 0 0 0-0.1 0.1 0 0 0.1 0c0 0 0.1-0.1 0.1-0.1zm-2.3 0.6q-0.1 0-0.2 0c0 0.1 0.1 0 0.2 0zm-1.7 6.1c0 0-0.1 0-0.1 0.1q0 0 0 0 0.1 0 0.1-0.1 0 0 0 0zm-0.1-0.5q-0.1 0-0.1 0 0 0-0.1 0.1c0 0 0 0 0 0 0 0 0 0 0.1 0q0 0 0 0 0.1 0 0.1-0.1zm2.4 3.8c0 0 0-0.1 0-0.1 0 0.1 0 0.1 0 0.1q0 0.1 0 0.1c0 0 0-0.1 0-0.1zm-0.8 1.5q-0.1 0.1-0.1 0.2c0.1-0.1 0.1-0.1 0.1-0.2zm5-2.8c0 0 0 0-0.1 0 0 0 0 0 0 0q0 0.1 0 0.1c0.1 0 0.1-0.1 0.1-0.1zm-5.2 3.1c0 0 0.1-0.1 0-0.2q0 0.1 0 0.2zm3-10.7q-0.1 0-0.1 0.1 0.1 0 0.1-0.1zm-3.3 0.9c0 0 0.1 0 0.1 0q0-0.1 0-0.1-0.1 0-0.1 0.1zm1.2-2.5c0-0.1 0-0.1 0-0.1q0 0-0.1 0c0 0 0 0.1 0.1 0.1q0 0 0 0 0 0 0 0zm0.4-0.5c0-0.1 0.1-0.1 0-0.2q0 0 0 0 0 0.1 0 0.1c0 0.1 0 0.1 0 0.1zm-2 0.7c0-0.1 0-0.1-0.1-0.2q0 0 0 0.1 0 0 0 0.1 0 0 0 0 0.1 0 0.1 0zm-3.2 10.7c0-0.1 0-0.2 0-0.2q-0.1 0.1 0 0.2zm5.1 1.1c-0.1-0.1-0.1-0.1-0.1-0.1 0 0.1 0 0.1 0.1 0.1zm-1.4-12.1c0 0 0 0.1 0.1 0.1 0 0 0-0.1 0-0.1q0 0 0 0c0 0 0 0-0.1 0 0 0 0 0 0 0zm2.3 0.2q0 0 0 0 0 0-0.1 0 0 0 0 0.1 0 0 0 0c0.1 0 0.1 0 0.1-0.1q0 0 0 0zm2 10q-0.1-0.1-0.2 0 0.1 0 0.2 0zm-6.8 0.1q0-0.1-0.2-0.1 0.1 0.1 0.2 0.1zm5.4-3.5q0 0 0 0 0 0 0 0 0.1 0 0.1 0.1 0 0 0 0 0.1-0.1 0-0.1 0 0-0.1 0zm-1.4 5.5q0-0.1-0.1-0.2c0 0.1 0.1 0.2 0.1 0.2zm-2.7-5.1c0 0 0 0 0 0.1q0 0 0 0c0 0 0.1 0 0.1 0q0-0.1-0.1-0.1zm0-3.7q0 0 0 0-0.1 0-0.1 0.1 0 0 0 0 0 0.1 0 0 0.1 0 0.1-0.1zm2.9-3.4q0-0.1-0.1-0.1c0 0 0 0 0 0 0 0.1 0 0.1 0 0.1 0.1 0 0 0 0.1 0zm1.1 7.2q-0.1 0 0 0 0 0 0 0 0.1 0 0.1 0c0 0-0.1 0-0.1 0zm0.1-0.1q0 0-0.1 0 0 0 0 0 0 0.1 0.1 0.1 0 0 0-0.1zm0-3.7q0 0.1 0 0.1 0.1 0 0.1 0 0 0 0 0-0.1-0.1-0.1-0.1zm2.4 7.3q0.1 0 0-0.1 0 0.1 0 0.1zm-5.5-2.2q0 0 0 0 0 0 0 0 0 0-0.1 0 0 0 0 0.1 0 0 0 0 0.1 0 0.1-0.1zm1.4 2.1c0 0-0.1 0-0.1 0 0 0 0 0.1 0 0.1q0.1 0 0.1-0.1zm0.1 0.5c0 0 0-0.1-0.1-0.1q0 0 0 0 0 0 0 0 0 0.1 0.1 0.1zm-0.2-0.3q0-0.1-0.1-0.2 0 0 0 0c0 0.1 0.1 0.1 0.1 0.1q0 0 0 0.1 0 0 0 0 0 0 0 0zm-2.7-8.1q0 0 0 0-0.1 0-0.2 0.1 0-0.1 0 0 0 0 0 0 0.1 0 0.2-0.1zm0-0.1q-0.1 0.1-0.2 0.1 0 0 0 0 0 0 0 0 0 0 0.1 0c0 0 0.1 0 0.1-0.1zm6.5 9.1q-0.1 0.1-0.2 0.2 0.2-0.1 0.2-0.2zm-8.1 0.1q0 0.2 0.1 0.2-0.1-0.1-0.1-0.2zm6.5-9.2c0 0.1 0.1 0.1 0.2 0.1q0 0 0 0 0 0 0 0c-0.1 0-0.1-0.1-0.2-0.1zm-2.8-0.2q0 0-0.1 0c0.1 0 0 0.1 0 0.1q0.1 0 0.1-0.1zm-0.9-1.9q-0.1-0.1-0.1 0 0.1 0 0.1 0zm3.7 2.2q0.1 0.1 0.1 0.1 0 0 0.1 0 0 0-0.1 0 0-0.1-0.1-0.1zm-3.3 6.1q0 0.1 0 0.1 0 0 0 0 0 0.1 0 0c0 0 0.1 0 0-0.1zm0-0.8c-0.1 0.1-0.1 0.1 0 0.2q0-0.1 0-0.2zm-0.5-7.8q0 0 0.1-0.1-0.1 0-0.1-0.1 0 0 0 0 0 0 0 0 0 0.1 0 0.2zm0.3 8.5q0-0.1 0.1-0.1 0 0 0 0-0.1-0.1-0.1 0c0 0 0 0 0 0.1zm1.6 1.7q0 0 0 0.1 0 0 0.1-0.1c0 0-0.1 0-0.1 0zm-0.9-0.6q-0.1 0-0.1 0 0 0.1 0 0.1 0 0 0 0 0 0 0.1 0 0-0.1 0-0.1zm-1.6-9.4q0 0.1 0.1 0.1-0.1-0.1-0.1-0.1zm-4 13.4q-0.1 0.1-0.1 0.2 0.1-0.1 0.1-0.2zm7.9-13.4q-0.1 0.1-0.1 0.1 0 0 0 0 0.1 0 0.1-0.1zm1.4 9.7c-0.1 0-0.1 0-0.1 0.1q0.1 0 0.1-0.1zm-5.8-3.4q-0.1 0-0.1 0c0 0 0 0 0 0q0 0.1 0 0 0.1 0 0.1 0zm4.9-0.1q0 0 0 0.1 0 0 0 0 0 0 0.1 0 0 0 0 0c0-0.1 0 0-0.1 0q0-0.1 0-0.1zm2 2.4q-0.1 0.1 0 0.1 0 0 0-0.1zm-6.1 3.6q-0.1 0-0.2-0.1 0.1 0.1 0.2 0.1zm2.8-12.1q0.1 0 0.2 0.1-0.1-0.1-0.2-0.1zm4.8 13.4q0-0.1-0.1-0.2 0.1 0.1 0.1 0.2zm-6.6-13.9q0 0 0 0 0-0.1 0-0.1 0-0.1 0-0.1 0 0 0 0.1 0 0 0 0.1zm2.9 6.7q-0.1-0.1-0.2-0.1 0.1 0.1 0.2 0.1zm-4.4 0q0 0-0.1 0 0 0 0 0c0 0.1 0 0 0 0q0.1 0 0.1 0zm3.4-6.5q0 0 0 0 0.1-0.1 0.1-0.1 0 0 0-0.1 0 0 0 0.1-0.1 0-0.1 0.1zm-4.7 10c0.1 0.1 0.1 0.1 0.1 0.1q0.1 0 0 0 0-0.1-0.1-0.1zm4.1-10.9q0.1 0 0.1 0.1 0 0 0 0 0 0 0 0 0-0.1-0.1-0.1zm3.7 9.8c0 0 0-0.1 0-0.1 0 0 0 0.1 0 0.1q0 0 0 0c0 0 0 0 0 0zm-4-6.7q0 0.1 0 0.1 0.1-0.1 0-0.1zm-4.8 6.7q-0.1 0 0 0-0.1 0.1 0 0.1 0 0 0 0 0 0 0-0.1 0 0 0 0zm0.4-0.5c0 0-0.1 0 0 0.1 0 0 0 0 0 0 0-0.1 0-0.1 0-0.1zm3.4-9.2q0.1 0 0.1 0-0.1-0.1-0.1 0z"/><path class="d" d="m10.7 20.1c-0.4 0-0.8 0-1.1-0.2-0.3-0.1-0.5-0.4-0.4-0.6q0 0 0-0.1 0 0 0 0c0.1 0 0 0 0 0.1 0 0.3 0.2 0.5 0.5 0.6q0.3 0.2 0.7 0.2 0.2 0 0.3 0z"/><path class="e" d="m10 19.8c0.4 0.1 0.8 0.1 1.2 0 0.4 0 0.7-0.1 1.1-0.3-0.5 0.3-1.9 0.5-2.3 0.3z"/><path class="f" d="m14.5 20.7q0.1 0.1 0 0.2-0.1 0.3-0.3 0.4-0.1 0.1-0.2 0-0.1 0-0.1 0 0.1 0 0.1 0 0.1 0 0.2-0.1 0.2-0.1 0.3-0.4 0 0 0-0.1z"/><path class="g" d="m11.4 20q0.5-0.1 1-0.3c-0.4 0.1-0.7 0.2-1 0.3z"/><path class="h" d="m14.3 20.6q0 0.1-0.1 0.1-0.2 0.2-0.5 0.2c0 0-0.1 0-0.1-0.1 0.2 0.1 0.6 0 0.7-0.2z"/><path class="i" d="m15.2 9.8q0 0 0.1 0c0 0 0.1 0 0.1-0.1 0.2-0.2 0.1-0.4 0-0.6-0.1-0.1-0.1-0.1-0.1-0.2q0.1 0.2 0.2 0.3 0.1 0.2 0 0.4-0.1 0.2-0.2 0.3 0.1 0 0.2-0.1 0 0 0 0 0 0 0 0.1-0.1 0.2-0.3 0.2-0.3 0.1-0.6-0.1 0-0.1 0-0.1-0.1-0.1 0-0.1 0 0 0 0c0.2 0.2 0.4 0.2 0.6 0.2q0-0.1 0.1-0.1-0.1 0-0.1-0.1z"/><path class="j" d="m14.9 9.8c-0.2-0.1-0.2-0.2-0.2-0.4q0.1-0.1 0.1-0.2c0.1 0 0 0 0 0.1q0 0.1 0 0.2c0 0.2 0.1 0.3 0.3 0.3q0.1-0.1 0.2-0.1c0.1-0.1 0-0.2 0-0.3q0-0.1 0-0.2-0.1 0 0 0 0.1 0.1 0.1 0.3 0 0.2-0.2 0.3-0.1 0-0.3 0 0 0 0 0z"/><path class="k" d="m15 13.1q-0.1 0.1-0.1 0-0.1-0.1-0.1-0.2 0 0 0 0 0 0 0 0 0.1 0.1 0.2 0.1 0-0.1-0.1-0.2c0 0 0 0 0 0q-0.1-0.1-0.2-0.2c0.1 0 0.2 0.1 0.2 0.1 0-0.1 0-0.2 0.1-0.3 0 0 0 0.1 0 0.1q-0.1 0.3 0 0.6c0.1-0.1 0.1-0.1 0.2-0.2q0 0.1-0.1 0.2c0 0.1-0.1 0-0.1 0z"/><path class="l" d="m14.9 9.8q0 0 0 0c0 0.1 0 0.1 0 0.1q-0.1 0-0.1 0c-0.1-0.1-0.1-0.1-0.2-0.1-0.1-0.2-0.1-0.5 0.1-0.7q0-0.1 0.1-0.2c0 0.1 0 0.1-0.1 0.1q-0.1 0.2-0.1 0.3c-0.1 0.2 0 0.4 0.1 0.5 0.1 0.1 0.1 0 0.2 0z"/><path class="m" d="m13.4 9.8q0 0 0.1 0 0.2-0.1 0.4 0 0.1 0 0.1 0c0 0.1 0.1 0.1 0 0.1 0 0.1 0 0-0.1 0-0.1-0.1-0.3-0.1-0.4-0.1q-0.1 0-0.1 0 0 0 0 0z"/><path class="n" d="m16.7 9.8q-0.2 0-0.3 0-0.2 0-0.3 0.1 0 0 0 0-0.1 0 0-0.1 0 0 0 0 0.3-0.1 0.5 0 0 0 0.1 0z"/><path class="o" d="m15.1 10.2q0.1 0 0.1 0.1 0 0.1-0.1 0.1-0.1 0-0.1-0.1c0-0.1 0-0.1 0.1-0.1z"/><path class="p" d="m15 11.9q0.1 0.2 0.1 0.4 0 0-0.1 0 0 0 0 0 0-0.2 0-0.4 0 0 0 0z"/><path class="q" d="m16.1 15.4c-0.1-0.3-0.3-0.4-0.4-0.7 0 0 0.1 0.1 0.1 0.2q0.2 0.2 0.3 0.4 0 0.1 0 0.1z"/><path class="r" d="m15.2 12.3c0 0.1-0.1 0.2-0.1 0.3q0 0-0.1 0 0 0 0-0.1 0.1-0.1 0.2-0.2z"/><path class="s" d="m15.1 11.2q0 0.1 0 0.2 0 0.2 0 0.3 0 0 0 0.1-0.1 0-0.1-0.1 0-0.2 0.1-0.5z"/><path class="t" d="m15.2 12.6c0 0.1-0.1 0.2-0.1 0.3q0 0-0.1 0 0-0.1 0-0.1 0.1-0.1 0.2-0.2z"/><path class="u" d="m14.8 12.2q0 0.2 0.1 0.3 0 0 0 0 0 0.1-0.1 0 0-0.1-0.1-0.2 0.1-0.1 0.1-0.1z"/><path class="v" d="m14.9 13.3q0.1 0 0.1 0.1 0.1 0 0 0.1c0 0 0-0.1 0-0.1q-0.1 0-0.1-0.1z"/><path class="w" d="m15.3 13.7c0.1 0.1 0.1 0.2 0.1 0.2q0 0.1-0.1 0.1 0-0.1 0-0.1 0-0.1 0-0.2z"/><path class="x" d="m15.1 13.8q0.1 0.1 0.1 0.1 0.1 0 0.1 0.1-0.1 0-0.1 0c0-0.1-0.1-0.1-0.1-0.2z"/><path class="y" d="m15 13.5q0.1 0.1 0.1 0.2 0.1 0 0 0 0 0 0 0-0.1-0.1-0.1-0.1 0-0.1 0-0.1z"/><path class="z" d="m15.2 13.2q0 0.1 0 0.2 0 0-0.1 0 0 0 0 0 0.1-0.1 0.1-0.2z"/><path class="A" d="m15.3 14.2q0 0 0 0-0.1-0.1-0.1-0.1c0 0 0.1 0 0.1 0q0 0 0 0 0.1 0.1 0.1 0.1 0 0-0.1 0z"/><path class="B" d="m15.3 13.5c0 0.1 0 0.1 0 0.2q0 0-0.1 0 0 0 0 0 0-0.1 0.1-0.2z"/><path class="C" d="m15.5 14.4q0 0-0.1-0.1 0 0 0 0 0.1 0 0.1 0c0 0 0 0.1 0 0.1z"/><path class="D" d="m15.6 14.6q0 0-0.1-0.1 0.1 0 0.1 0.1z"/><path class="E" d="m15.4 14q0 0.1 0 0.1 0 0 0 0 0 0 0 0 0-0.1 0-0.1z"/><path class="F" d="m19.3 19.9q0.1 0 0.1 0c0.2 0 0.4 0 0.7 0 0.2-0.1 0.5-0.2 0.6-0.5q0.1-0.1 0.1-0.3c0 0 0 0 0 0q0 0 0 0 0.1 0.2 0 0.3-0.1 0.3-0.4 0.4-0.4 0.2-0.8 0.2-0.1 0-0.3-0.1z"/><path class="G" d="m17.8 19.4c0.7 0.3 1.4 0.4 2.2 0.2-0.4 0.2-1.7 0.1-2.2-0.2z"/><path class="H" d="m17.7 19.6q0.5 0.1 1 0.2c-0.1 0-0.7-0.1-1-0.2z"/><path class="I" d="m16.5 20.6q-0.1 0.1-0.1 0.1-0.3 0-0.5-0.1-0.1-0.1-0.1-0.1c0.1 0.1 0.2 0.1 0.3 0.1 0.1 0.1 0.2 0.1 0.4 0z"/><path class="J" d="m17.7 15q0 0.1 0 0.1 0 0 0.1 0.1-0.1-0.1-0.1-0.2z"/><path class="K" d="m11.3 12.6c0.1-0.2 0.7-0.7 1-0.7q-0.6 0.2-1 0.7z"/><path class="L" d="m12.8 14.5q0 0 0 0 0 0.1 0 0.1-0.1 0-0.1-0.1 0 0 0.1 0z"/><path class="M" d="m12.4 15.1c0 0.1 0 0.1-0.1 0.2q0-0.1 0.1-0.2z"/><path class="N" d="m17.3 14.4q0 0 0 0.1 0 0 0 0 0 0 0 0 0-0.1 0-0.1z"/><path class="O" d="m7.4 17.9c0 0.1-0.1 0.1-0.1 0.1q0 0 0 0-0.1 0 0 0 0-0.1 0.1-0.1z"/><path class="P" d="m7.5 17.8q0-0.1 0.1-0.1 0 0 0 0-0.1 0.1-0.1 0.1z"/><path class="Q" d="m22.5 17.7q0 0 0 0-0.1-0.1-0.1-0.1 0 0 0 0 0.1 0 0.1 0 0 0 0 0.1z"/><path class="R" d="m12.1 8.8c0.1-0.1 0.2 0 0.3 0 0.2 0.1 0.4 0.2 0.6 0.4 0 0 0 0 0 0 0 0.1 0 0-0.1 0q-0.3-0.3-0.8-0.4 0 0 0 0z"/><path class="S" d="m18 8.8q-0.2 0-0.4 0.1-0.3 0.1-0.5 0.3c0 0 0 0 0 0-0.1 0 0 0 0-0.1 0.1-0.1 0.3-0.2 0.4-0.3q0.2 0 0.3 0 0.1-0.1 0.2 0z"/><path class="T" d="m14.3 6.7q0 0.1-0.1 0.1 0 0 0-0.1 0 0 0 0 0.1 0 0.1 0z"/><path class="U" d="m15.9 6.7q0 0.1 0 0.1-0.1 0-0.1-0.1 0 0 0.1 0 0 0 0 0z"/><path class="V" d="m14.6 6.7q0 0 0 0 0-0.1 0-0.1 0.1 0 0.1 0.1 0 0-0.1 0z"/><path class="W" d="m15.5 6.7q0 0-0.1 0 0 0 0 0 0 0 0 0 0.1 0 0.1 0z"/><path class="X" d="m11.9 16.9q-0.1 0-0.2-0.1 0 0 0 0 0 0 0 0 0.1 0 0.2 0.1z"/><path class="Y" d="m19.2 16.5q0 0 0 0 0 0.1-0.1 0.1 0 0 0 0c0.1-0.1 0.1-0.1 0.1-0.1z"/><path class="Z" d="m18.8 16.5q-0.1 0.1-0.2 0.1 0 0 0 0 0-0.1 0-0.1 0.1 0 0.2 0z"/><path class="a0" d="m11.5 16.7q-0.2 0.1-0.3 0 0-0.1 0-0.1 0.1 0 0.1 0c0 0 0.1 0.1 0.2 0.1z"/><path class="a1" d="m15 18.1q-0.1 0-0.1 0c0-0.1 0-0.3 0.1-0.4q0 0 0 0 0.1 0 0.1 0 0 0 0 0c-0.1 0.1-0.1 0.3-0.1 0.4q0 0 0 0z"/><path class="a2" d="m14.7 7.4q0.1 0 0.1 0-0.1 0-0.1 0 0 0 0 0 0 0 0 0z"/><path class="a3" d="m15.4 7.4q0 0 0 0-0.1 0-0.1 0 0 0 0.1 0 0 0 0 0z"/><path class="a4" d="m15.6 7.6q-0.1 0-0.1 0 0 0 0.1 0 0 0 0 0 0 0 0 0z"/><path class="a5" d="m14.6 7.6q-0.1 0-0.1 0 0 0 0 0 0-0.1 0 0 0-0.1 0.1 0z"/><path class="a6" d="m14.4 7.8q0 0.1 0 0.1-0.1 0-0.1-0.1 0 0 0.1 0 0 0 0 0z"/><path class="a7" d="m15.7 7.9q0-0.1 0-0.1 0 0 0 0 0.1 0 0.1 0-0.1 0.1-0.1 0.1 0 0 0 0z"/></svg>